<svg width="12" height="7" viewBox="0 0 12 7" fill="none" xmlns="http://www.w3.org/2000/svg">
<path d="M0.759346 6.25C0.0841946 6.25 -0.253923 5.44256 0.223481 4.97033C0.223481 4.97033 0.223481 4.97033 0.223481 4.97033L2.57047 2.64877C4.18717 1.04959 4.99552 0.249999 6 0.25C7.00449 0.25 7.81284 1.04959 9.42953 2.64877L11.7765 4.97033C12.2539 5.44256 11.9158 6.25 11.2407 6.25C11.0397 6.25 10.8469 6.17102 10.7048 6.03044L8.35781 3.70889C7.51916 2.87933 6.99571 2.36605 6.56582 2.04161C6.17782 1.74878 6.04236 1.74913 6.00207 1.74923L6 1.74923L5.99794 1.74923C5.95765 1.74913 5.82219 1.74878 5.43418 2.04161C5.00429 2.36605 4.48085 2.87932 3.6422 3.70888L1.29521 6.03044C1.29521 6.03044 1.29521 6.03044 1.29521 6.03044C1.15309 6.17102 0.960333 6.25 0.759346 6.25Z" fill="#1D2023"/>
</svg>
