<svg width="23" height="23" viewBox="0 0 23 23" fill="none" xmlns="http://www.w3.org/2000/svg">
<path id="search-icon" fill-rule="evenodd" clip-rule="evenodd" d="M1.38621 3.81995C0.679608 5.12693 0.629639 5.94446 0.529702 7.57953C0.496089 8.12947 0.476562 8.69029 0.476562 9.25111C0.476562 9.81193 0.496089 10.3728 0.529702 10.9227C0.629639 12.5578 0.679608 13.3753 1.38621 14.6823C1.84921 15.5387 3.24861 16.9382 4.10495 17.4012C5.41182 18.1079 6.2293 18.1579 7.86424 18.2578C8.41414 18.2914 8.97491 18.3109 9.53569 18.3109C10.0965 18.3109 10.6572 18.2914 11.2071 18.2578C12.8421 18.1579 13.6596 18.1079 14.9664 17.4012C15.1289 17.3134 15.3109 17.1918 15.5023 17.0467L20.2676 21.8123C20.7729 22.3176 21.5922 22.3176 22.0976 21.8123C22.6029 21.3069 22.6029 20.4875 22.0976 19.9821L17.3321 15.2163C17.4766 15.0255 17.5976 14.8442 17.6852 14.6823C18.3918 13.3753 18.4417 12.5578 18.5417 10.9227C18.5753 10.3728 18.5948 9.81193 18.5948 9.25111C18.5948 8.69029 18.5753 8.12947 18.5417 7.57953C18.4417 5.94446 18.3918 5.12693 17.6852 3.81995C17.2222 2.96354 15.8228 1.56404 14.9664 1.101C13.6596 0.394345 12.8421 0.344373 11.2071 0.244428C10.6572 0.210812 10.0965 0.191284 9.53569 0.191284C8.97492 0.191284 8.41414 0.210812 7.86424 0.244427C6.2293 0.344373 5.41182 0.394345 4.10495 1.101C3.24861 1.56404 1.84921 2.96354 1.38621 3.81995ZM8.02214 2.82782C8.52664 2.79698 9.03432 2.7795 9.53569 2.7795C10.0371 2.7795 10.5447 2.79698 11.0492 2.82782C12.655 2.92598 12.9687 2.96308 13.7355 3.37771C13.7355 3.37771 13.7439 3.3823 13.7609 3.39297C13.7785 3.40397 13.8023 3.41954 13.8323 3.44042C13.8932 3.48278 13.9693 3.53971 14.0584 3.6119C14.2381 3.75752 14.441 3.94076 14.6433 4.14311C14.8456 4.34545 15.0289 4.54831 15.1745 4.72808C15.2467 4.8172 15.3036 4.89322 15.3459 4.95413C15.3668 4.98414 15.3824 5.00796 15.3934 5.02555C15.4045 5.0434 15.4086 5.05094 15.4086 5.05094C15.8232 5.81786 15.8603 6.13151 15.9585 7.73745C15.9893 8.24199 16.0068 8.7497 16.0068 9.25111C16.0068 9.75253 15.9893 10.2602 15.9585 10.7648C15.8603 12.3707 15.8232 12.6844 15.4086 13.4513C15.4086 13.4513 15.4045 13.4588 15.3934 13.4767C15.3824 13.4943 15.3668 13.5181 15.3459 13.5481C15.3036 13.609 15.2467 13.685 15.1745 13.7741C15.0289 13.9539 14.8456 14.1568 14.6433 14.3591C14.441 14.5615 14.2381 14.7447 14.0584 14.8903C13.9693 14.9625 13.8932 15.0194 13.8323 15.0618C13.8023 15.0827 13.7785 15.0983 13.7609 15.1093C13.7431 15.1204 13.7355 15.1245 13.7355 15.1245C12.9687 15.5391 12.6551 15.5762 11.0492 15.6744C10.5447 15.7052 10.0371 15.7227 9.53569 15.7227C9.03432 15.7227 8.52664 15.7052 8.02214 15.6744C6.41633 15.5762 6.1027 15.5391 5.33584 15.1245C5.33584 15.1245 5.3283 15.1204 5.31045 15.1093C5.29286 15.0983 5.26905 15.0827 5.23904 15.0618C5.17814 15.0194 5.10212 14.9625 5.01301 14.8903C4.83325 14.7447 4.63041 14.5615 4.42808 14.3591C4.22575 14.1568 4.04253 13.9539 3.89691 13.7741C3.82473 13.685 3.76781 13.609 3.72545 13.5481C3.70457 13.5181 3.689 13.4943 3.678 13.4767C3.66733 13.4596 3.66274 13.4512 3.66274 13.4512C3.24814 12.6844 3.21105 12.3707 3.11289 10.7648C3.08205 10.2602 3.06457 9.75253 3.06457 9.25111C3.06457 8.7497 3.08205 8.24199 3.11289 7.73745C3.21105 6.13151 3.24811 5.81791 3.66274 5.05099C3.66274 5.05099 3.66733 5.04261 3.678 5.02555C3.689 5.00796 3.70457 4.98414 3.72545 4.95413C3.76781 4.89322 3.82473 4.8172 3.89691 4.72808C4.04253 4.54831 4.22575 4.34545 4.42808 4.14311C4.63041 3.94076 4.83325 3.75752 5.01301 3.6119C5.10212 3.53971 5.17814 3.48278 5.23904 3.44042C5.26905 3.41954 5.29286 3.40397 5.31045 3.39297C5.3283 3.38181 5.33584 3.37773 5.33584 3.37773C6.1027 2.96308 6.41633 2.92598 8.02214 2.82782Z" fill="#666666"/>

</svg>
