<svg width="28" height="28" viewBox="0 0 28 28" fill="none" xmlns="http://www.w3.org/2000/svg">
<defs>
    <linearGradient id="myGradient" x1="0%" y1="0%" x2="0%" y2="100%">
      <stop offset="0%" stop-color="#58b3ff" /> 
      <stop offset="100%" stop-color="#005fae" /> 
    </linearGradient>
</defs>

<mask id="myMask">
<rect x="0" y="0" width="28" height="28" fill="#000" />
<path d="M0.693364 3.42341C0.765509 2.45406 0.801581 1.96938 1.28807 1.48289C1.77455 0.996405 2.25923 0.960333 3.22859 0.888189C3.47987 0.869487 3.73908 0.858154 3.99829 0.858154C4.2575 0.858154 4.51671 0.869487 4.76799 0.888189C5.73735 0.960333 6.22203 0.996405 6.70851 1.48289C7.195 1.96938 7.23107 2.45406 7.30322 3.42341C7.32192 3.6747 7.33325 3.93391 7.33325 4.19312C7.33325 4.45232 7.32192 4.71153 7.30322 4.96282C7.23107 5.93217 7.195 6.41685 6.70851 6.90334C6.22203 7.38983 5.73735 7.4259 4.76799 7.49804C4.51671 7.51674 4.2575 7.52808 3.99829 7.52808C3.73908 7.52808 3.47987 7.51674 3.22859 7.49804C2.25923 7.4259 1.77455 7.38983 1.28807 6.90334C0.801581 6.41685 0.765509 5.93217 0.693364 4.96282C0.674663 4.71153 0.66333 4.45232 0.66333 4.19312C0.66333 3.93391 0.674663 3.6747 0.693364 3.42341Z" fill="#ffffff"/>
<path d="M0.693364 13.4234C0.765509 12.4541 0.801581 11.9694 1.28807 11.4829C1.77455 10.9964 2.25923 10.9603 3.22859 10.8882C3.47987 10.8695 3.73908 10.8582 3.99829 10.8582C4.2575 10.8582 4.51671 10.8695 4.76799 10.8882C5.73735 10.9603 6.22203 10.9964 6.70851 11.4829C7.195 11.9694 7.23107 12.4541 7.30322 13.4234C7.32192 13.6747 7.33325 13.9339 7.33325 14.1931C7.33325 14.4523 7.32192 14.7115 7.30322 14.9628C7.23107 15.9322 7.195 16.4169 6.70851 16.9033C6.22203 17.3898 5.73735 17.4259 4.76799 17.498C4.51671 17.5167 4.2575 17.5281 3.99829 17.5281C3.73908 17.5281 3.47987 17.5167 3.22859 17.498C2.25923 17.4259 1.77455 17.3898 1.28807 16.9033C0.801581 16.4169 0.765509 15.9322 0.693364 14.9628C0.674663 14.7115 0.66333 14.4523 0.66333 14.1931C0.66333 13.9339 0.674663 13.6747 0.693364 13.4234Z" fill="#ffffff"/>
<path d="M1.28807 21.4829C0.801581 21.9694 0.765509 22.4541 0.693364 23.4234C0.674663 23.6747 0.66333 23.9339 0.66333 24.1931C0.66333 24.4523 0.674663 24.7115 0.693364 24.9628C0.765509 25.9322 0.801581 26.4169 1.28807 26.9033C1.77455 27.3898 2.25923 27.4259 3.22859 27.498C3.47987 27.5167 3.73908 27.5281 3.99829 27.5281C4.2575 27.5281 4.51671 27.5167 4.76799 27.498C5.73735 27.4259 6.22203 27.3898 6.70851 26.9033C7.195 26.4169 7.23107 25.9322 7.30322 24.9628C7.32192 24.7115 7.33325 24.4523 7.33325 24.1931C7.33325 23.9339 7.32192 23.6747 7.30322 23.4234C7.23107 22.4541 7.195 21.9694 6.70851 21.4829C6.22203 20.9964 5.73735 20.9603 4.76799 20.8882C4.51671 20.8695 4.2575 20.8582 3.99829 20.8582C3.73908 20.8582 3.47987 20.8695 3.22859 20.8882C2.25923 20.9603 1.77455 20.9964 1.28807 21.4829Z" fill="#ffffff"/>
<path d="M20.6966 3.42341C20.7688 2.45406 20.8048 1.96938 21.2913 1.48289C21.7778 0.996405 22.2625 0.960333 23.2318 0.888189C23.4831 0.869487 23.7423 0.858154 24.0015 0.858154C24.2608 0.858154 24.52 0.869487 24.7712 0.888189C25.7406 0.960333 26.2253 0.996405 26.7118 1.48289C27.1983 1.96938 27.2343 2.45406 27.3065 3.42341C27.3252 3.6747 27.3365 3.93391 27.3365 4.19312C27.3365 4.45232 27.3252 4.71153 27.3065 4.96282C27.2343 5.93217 27.1983 6.41685 26.7118 6.90334C26.2253 7.38983 25.7406 7.4259 24.7712 7.49804C24.52 7.51674 24.2608 7.52808 24.0015 7.52808C23.7423 7.52808 23.4831 7.51674 23.2318 7.49804C22.2625 7.4259 21.7778 7.38983 21.2913 6.90334C20.8048 6.41685 20.7688 5.93217 20.6966 4.96282C20.6779 4.71153 20.6666 4.45232 20.6666 4.19312C20.6666 3.93391 20.6779 3.6747 20.6966 3.42341Z" fill="#ffffff"/>
<path d="M21.2913 11.4829C20.8048 11.9694 20.7688 12.4541 20.6966 13.4234C20.6779 13.6747 20.6666 13.9339 20.6666 14.1931C20.6666 14.4523 20.6779 14.7115 20.6966 14.9628C20.7688 15.9322 20.8048 16.4169 21.2913 16.9033C21.7778 17.3898 22.2625 17.4259 23.2318 17.498C23.4831 17.5167 23.7423 17.5281 24.0015 17.5281C24.2608 17.5281 24.52 17.5167 24.7712 17.498C25.7406 17.4259 26.2253 17.3898 26.7118 16.9033C27.1983 16.4169 27.2343 15.9322 27.3065 14.9628C27.3252 14.7115 27.3365 14.4523 27.3365 14.1931C27.3365 13.9339 27.3252 13.6747 27.3065 13.4234C27.2343 12.4541 27.1983 11.9694 26.7118 11.4829C26.2253 10.9964 25.7406 10.9603 24.7712 10.8882C24.52 10.8695 24.2608 10.8582 24.0015 10.8582C23.7423 10.8582 23.4831 10.8695 23.2318 10.8882C22.2625 10.9603 21.7778 10.9964 21.2913 11.4829Z" fill="#ffffff"/>
<path d="M20.6966 23.4234C20.7688 22.4541 20.8048 21.9694 21.2913 21.4829C21.7778 20.9964 22.2625 20.9603 23.2318 20.8882C23.4831 20.8695 23.7423 20.8582 24.0015 20.8582C24.2608 20.8582 24.52 20.8695 24.7712 20.8882C25.7406 20.9603 26.2253 20.9964 26.7118 21.4829C27.1983 21.9694 27.2343 22.4541 27.3065 23.4234C27.3252 23.6747 27.3365 23.9339 27.3365 24.1931C27.3365 24.4523 27.3252 24.7115 27.3065 24.9628C27.2343 25.9322 27.1983 26.4169 26.7118 26.9033C26.2253 27.3898 25.7406 27.4259 24.7712 27.498C24.52 27.5167 24.2608 27.5281 24.0015 27.5281C23.7423 27.5281 23.4831 27.5167 23.2318 27.498C22.2625 27.4259 21.7778 27.3898 21.2913 26.9033C20.8048 26.4169 20.7688 25.9322 20.6966 24.9628C20.6779 24.7115 20.6666 24.4523 20.6666 24.1931C20.6666 23.9339 20.6779 23.6747 20.6966 23.4234Z" fill="#ffffff"/>
<path d="M11.2913 1.48289C10.8048 1.96938 10.7688 2.45406 10.6966 3.42341C10.6779 3.6747 10.6666 3.93391 10.6666 4.19312C10.6666 4.45232 10.6779 4.71153 10.6966 4.96282C10.7688 5.93217 10.8048 6.41685 11.2913 6.90334C11.7778 7.38983 12.2625 7.4259 13.2318 7.49804C13.4831 7.51674 13.7423 7.52808 14.0015 7.52808C14.2608 7.52808 14.52 7.51674 14.7712 7.49804C15.7406 7.4259 16.2253 7.38983 16.7118 6.90334C17.1983 6.41685 17.2343 5.93217 17.3065 4.96282C17.3252 4.71153 17.3365 4.45232 17.3365 4.19312C17.3365 3.93391 17.3252 3.6747 17.3065 3.42341C17.2343 2.45406 17.1983 1.96938 16.7118 1.48289C16.2253 0.996405 15.7406 0.960333 14.7712 0.888189C14.52 0.869487 14.2608 0.858154 14.0015 0.858154C13.7423 0.858154 13.4831 0.869487 13.2318 0.888189C12.2625 0.960333 11.7778 0.996405 11.2913 1.48289Z" fill="#ffffff"/>
<path d="M10.6966 13.4234C10.7688 12.4541 10.8048 11.9694 11.2913 11.4829C11.7778 10.9964 12.2625 10.9603 13.2318 10.8882C13.4831 10.8695 13.7423 10.8582 14.0015 10.8582C14.2608 10.8582 14.52 10.8695 14.7712 10.8882C15.7406 10.9603 16.2253 10.9964 16.7118 11.4829C17.1983 11.9694 17.2343 12.4541 17.3065 13.4234C17.3252 13.6747 17.3365 13.9339 17.3365 14.1931C17.3365 14.4523 17.3252 14.7115 17.3065 14.9628C17.2343 15.9322 17.1983 16.4169 16.7118 16.9033C16.2253 17.3898 15.7406 17.4259 14.7712 17.498C14.52 17.5167 14.2608 17.5281 14.0015 17.5281C13.7423 17.5281 13.4831 17.5167 13.2318 17.498C12.2625 17.4259 11.7778 17.3898 11.2913 16.9033C10.8048 16.4169 10.7688 15.9322 10.6966 14.9628C10.6779 14.7115 10.6666 14.4523 10.6666 14.1931C10.6666 13.9339 10.6779 13.6747 10.6966 13.4234Z" fill="#ffffff"/>
<path d="M11.2913 21.4829C10.8048 21.9694 10.7688 22.4541 10.6966 23.4234C10.6779 23.6747 10.6666 23.9339 10.6666 24.1931C10.6666 24.4523 10.6779 24.7115 10.6966 24.9628C10.7688 25.9322 10.8048 26.4169 11.2913 26.9033C11.7778 27.3898 12.2625 27.4259 13.2318 27.498C13.4831 27.5167 13.7423 27.5281 14.0015 27.5281C14.2608 27.5281 14.52 27.5167 14.7712 27.498C15.7406 27.4259 16.2253 27.3898 16.7118 26.9033C17.1983 26.4169 17.2343 25.9322 17.3065 24.9628C17.3252 24.7115 17.3365 24.4523 17.3365 24.1931C17.3365 23.9339 17.3252 23.6747 17.3065 23.4234C17.2343 22.4541 17.1983 21.9694 16.7118 21.4829C16.2253 20.9964 15.7406 20.9603 14.7712 20.8882C14.52 20.8695 14.2608 20.8582 14.0015 20.8582C13.7423 20.8582 13.4831 20.8695 13.2318 20.8882C12.2625 20.9603 11.7778 20.9964 11.2913 21.4829Z" fill="#ffffff"/>
</mask>
<rect x="0" y="0" width="28" height="28"  mask="url(#myMask)" />

</svg>
