<svg width="40" height="41" viewBox="0 0 40 41" fill="none" xmlns="http://www.w3.org/2000/svg">
<path d="M6.69361 9.4232C6.76575 8.45384 6.80183 7.96917 7.28831 7.48268C7.7748 6.99619 8.25948 6.96012 9.22883 6.88798C9.48012 6.86927 9.73933 6.85794 9.99854 6.85794C10.2577 6.85794 10.517 6.86927 10.7682 6.88798C11.7376 6.96012 12.2223 6.99619 12.7088 7.48268C13.1952 7.96917 13.2313 8.45384 13.3035 9.4232C13.3222 9.67448 13.3335 9.93369 13.3335 10.1929C13.3335 10.4521 13.3222 10.7113 13.3035 10.9626C13.2313 11.932 13.1952 12.4166 12.7088 12.9031C12.2223 13.3896 11.7376 13.4257 10.7682 13.4978C10.517 13.5165 10.2577 13.5279 9.99854 13.5279C9.73933 13.5279 9.48012 13.5165 9.22883 13.4978C8.25948 13.4257 7.7748 13.3896 7.28831 12.9031C6.80183 12.4166 6.76575 11.932 6.69361 10.9626C6.67491 10.7113 6.66357 10.4521 6.66357 10.1929C6.66357 9.93369 6.67491 9.67448 6.69361 9.4232Z" fill="#005FAE"/>
<path d="M6.69361 19.4232C6.76575 18.4538 6.80183 17.9692 7.28831 17.4827C7.7748 16.9962 8.25948 16.9601 9.22883 16.888C9.48012 16.8693 9.73933 16.8579 9.99854 16.8579C10.2577 16.8579 10.517 16.8693 10.7682 16.888C11.7376 16.9601 12.2223 16.9962 12.7088 17.4827C13.1952 17.9692 13.2313 18.4538 13.3035 19.4232C13.3222 19.6745 13.3335 19.9337 13.3335 20.1929C13.3335 20.4521 13.3222 20.7113 13.3035 20.9626C13.2313 21.932 13.1952 22.4166 12.7088 22.9031C12.2223 23.3896 11.7376 23.4257 10.7682 23.4978C10.517 23.5165 10.2577 23.5279 9.99854 23.5279C9.73933 23.5279 9.48012 23.5165 9.22883 23.4978C8.25948 23.4257 7.7748 23.3896 7.28831 22.9031C6.80183 22.4166 6.76575 21.932 6.69361 20.9626C6.67491 20.7113 6.66357 20.4521 6.66357 20.1929C6.66357 19.9337 6.67491 19.6745 6.69361 19.4232Z" fill="#005FAE"/>
<path d="M7.28831 27.4827C6.80183 27.9692 6.76575 28.4538 6.69361 29.4232C6.67491 29.6745 6.66357 29.9337 6.66357 30.1929C6.66357 30.4521 6.67491 30.7113 6.69361 30.9626C6.76575 31.932 6.80183 32.4166 7.28831 32.9031C7.7748 33.3896 8.25948 33.4257 9.22883 33.4978C9.48012 33.5165 9.73933 33.5279 9.99854 33.5279C10.2577 33.5279 10.517 33.5165 10.7682 33.4978C11.7376 33.4257 12.2223 33.3896 12.7088 32.9031C13.1952 32.4166 13.2313 31.932 13.3035 30.9626C13.3222 30.7113 13.3335 30.4521 13.3335 30.1929C13.3335 29.9337 13.3222 29.6745 13.3035 29.4232C13.2313 28.4538 13.1952 27.9692 12.7088 27.4827C12.2223 26.9962 11.7376 26.9601 10.7682 26.888C10.517 26.8693 10.2577 26.8579 9.99854 26.8579C9.73933 26.8579 9.48012 26.8693 9.22883 26.888C8.25948 26.9601 7.7748 26.9962 7.28831 27.4827Z" fill="#005FAE"/>
<path d="M26.6969 9.4232C26.769 8.45384 26.8051 7.96917 27.2916 7.48268C27.7781 6.99619 28.2627 6.96012 29.2321 6.88798C29.4834 6.86927 29.7426 6.85794 30.0018 6.85794C30.261 6.85794 30.5202 6.86927 30.7715 6.88798C31.7409 6.96012 32.2255 6.99619 32.712 7.48268C33.1985 7.96917 33.2346 8.45384 33.3067 9.4232C33.3254 9.67448 33.3368 9.93369 33.3368 10.1929C33.3368 10.4521 33.3254 10.7113 33.3067 10.9626C33.2346 11.932 33.1985 12.4166 32.712 12.9031C32.2255 13.3896 31.7409 13.4257 30.7715 13.4978C30.5202 13.5165 30.261 13.5279 30.0018 13.5279C29.7426 13.5279 29.4834 13.5165 29.2321 13.4978C28.2627 13.4257 27.7781 13.3896 27.2916 12.9031C26.8051 12.4166 26.769 11.932 26.6969 10.9626C26.6782 10.7113 26.6668 10.4521 26.6668 10.1929C26.6668 9.93369 26.6782 9.67448 26.6969 9.4232Z" fill="#005FAE"/>
<path d="M27.2916 17.4827C26.8051 17.9692 26.769 18.4538 26.6969 19.4232C26.6782 19.6745 26.6668 19.9337 26.6668 20.1929C26.6668 20.4521 26.6782 20.7113 26.6969 20.9626C26.769 21.932 26.8051 22.4166 27.2916 22.9031C27.7781 23.3896 28.2627 23.4257 29.2321 23.4978C29.4834 23.5165 29.7426 23.5279 30.0018 23.5279C30.261 23.5279 30.5202 23.5165 30.7715 23.4978C31.7409 23.4257 32.2255 23.3896 32.712 22.9031C33.1985 22.4166 33.2346 21.932 33.3067 20.9626C33.3254 20.7113 33.3368 20.4521 33.3368 20.1929C33.3368 19.9337 33.3254 19.6745 33.3067 19.4232C33.2346 18.4538 33.1985 17.9692 32.712 17.4827C32.2255 16.9962 31.7409 16.9601 30.7715 16.888C30.5202 16.8693 30.261 16.8579 30.0018 16.8579C29.7426 16.8579 29.4834 16.8693 29.2321 16.888C28.2627 16.9601 27.7781 16.9962 27.2916 17.4827Z" fill="#005FAE"/>
<path d="M26.6969 29.4232C26.769 28.4538 26.8051 27.9692 27.2916 27.4827C27.7781 26.9962 28.2627 26.9601 29.2321 26.888C29.4834 26.8693 29.7426 26.8579 30.0018 26.8579C30.261 26.8579 30.5202 26.8693 30.7715 26.888C31.7409 26.9601 32.2255 26.9962 32.712 27.4827C33.1985 27.9692 33.2346 28.4538 33.3067 29.4232C33.3254 29.6745 33.3368 29.9337 33.3368 30.1929C33.3368 30.4521 33.3254 30.7113 33.3067 30.9626C33.2346 31.932 33.1985 32.4166 32.712 32.9031C32.2255 33.3896 31.7409 33.4257 30.7715 33.4978C30.5202 33.5165 30.261 33.5279 30.0018 33.5279C29.7426 33.5279 29.4834 33.5165 29.2321 33.4978C28.2627 33.4257 27.7781 33.3896 27.2916 32.9031C26.8051 32.4166 26.769 31.932 26.6969 30.9626C26.6782 30.7113 26.6668 30.4521 26.6668 30.1929C26.6668 29.9337 26.6782 29.6745 26.6969 29.4232Z" fill="#005FAE"/>
<path d="M17.2916 7.48268C16.8051 7.96917 16.769 8.45384 16.6969 9.4232C16.6782 9.67448 16.6668 9.93369 16.6668 10.1929C16.6668 10.4521 16.6782 10.7113 16.6969 10.9626C16.769 11.932 16.8051 12.4166 17.2916 12.9031C17.7781 13.3896 18.2627 13.4257 19.2321 13.4978C19.4834 13.5165 19.7426 13.5279 20.0018 13.5279C20.261 13.5279 20.5202 13.5165 20.7715 13.4978C21.7408 13.4257 22.2255 13.3896 22.712 12.9031C23.1985 12.4166 23.2346 11.932 23.3067 10.9626C23.3254 10.7113 23.3368 10.4521 23.3368 10.1929C23.3368 9.93369 23.3254 9.67448 23.3067 9.4232C23.2346 8.45384 23.1985 7.96917 22.712 7.48268C22.2255 6.99619 21.7408 6.96012 20.7715 6.88798C20.5202 6.86927 20.261 6.85794 20.0018 6.85794C19.7426 6.85794 19.4834 6.86927 19.2321 6.88798C18.2627 6.96012 17.7781 6.99619 17.2916 7.48268Z" fill="#005FAE"/>
<path d="M16.6969 19.4232C16.769 18.4538 16.8051 17.9692 17.2916 17.4827C17.7781 16.9962 18.2627 16.9601 19.2321 16.888C19.4834 16.8693 19.7426 16.8579 20.0018 16.8579C20.261 16.8579 20.5202 16.8693 20.7715 16.888C21.7408 16.9601 22.2255 16.9962 22.712 17.4827C23.1985 17.9692 23.2346 18.4538 23.3067 19.4232C23.3254 19.6745 23.3368 19.9337 23.3368 20.1929C23.3368 20.4521 23.3254 20.7113 23.3067 20.9626C23.2346 21.932 23.1985 22.4166 22.712 22.9031C22.2255 23.3896 21.7408 23.4257 20.7715 23.4978C20.5202 23.5165 20.261 23.5279 20.0018 23.5279C19.7426 23.5279 19.4834 23.5165 19.2321 23.4978C18.2627 23.4257 17.7781 23.3896 17.2916 22.9031C16.8051 22.4166 16.769 21.932 16.6969 20.9626C16.6782 20.7113 16.6668 20.4521 16.6668 20.1929C16.6668 19.9337 16.6782 19.6745 16.6969 19.4232Z" fill="#005FAE"/>
<path d="M17.2916 27.4827C16.8051 27.9692 16.769 28.4538 16.6969 29.4232C16.6782 29.6745 16.6668 29.9337 16.6668 30.1929C16.6668 30.4521 16.6782 30.7113 16.6969 30.9626C16.769 31.932 16.8051 32.4166 17.2916 32.9031C17.7781 33.3896 18.2627 33.4257 19.2321 33.4978C19.4834 33.5165 19.7426 33.5279 20.0018 33.5279C20.261 33.5279 20.5202 33.5165 20.7715 33.4978C21.7408 33.4257 22.2255 33.3896 22.712 32.9031C23.1985 32.4166 23.2346 31.932 23.3067 30.9626C23.3254 30.7113 23.3368 30.4521 23.3368 30.1929C23.3368 29.9337 23.3254 29.6745 23.3067 29.4232C23.2346 28.4538 23.1985 27.9692 22.712 27.4827C22.2255 26.9962 21.7408 26.9601 20.7715 26.888C20.5202 26.8693 20.261 26.8579 20.0018 26.8579C19.7426 26.8579 19.4834 26.8693 19.2321 26.888C18.2627 26.9601 17.7781 26.9962 17.2916 27.4827Z" fill="#005FAE"/>
</svg>
