<svg width="40" height="41" viewBox="0 0 40 41" fill="none" xmlns="http://www.w3.org/2000/svg">
<path d="M6.69336 9.42323C6.76551 8.45387 6.80158 7.9692 7.28807 7.48271C7.77455 6.99622 8.25923 6.96015 9.22859 6.88801C9.47987 6.8693 9.73908 6.85797 9.99829 6.85797C10.2575 6.85797 10.5167 6.8693 10.768 6.88801C11.7373 6.96015 12.222 6.99622 12.7085 7.48271C13.195 7.9692 13.2311 8.45387 13.3032 9.42323C13.3219 9.67451 13.3333 9.93372 13.3333 10.1929C13.3333 10.4521 13.3219 10.7114 13.3032 10.9626C13.2311 11.932 13.195 12.4167 12.7085 12.9032C12.222 13.3896 11.7373 13.4257 10.768 13.4979C10.5167 13.5166 10.2575 13.5279 9.99829 13.5279C9.73908 13.5279 9.47987 13.5166 9.22859 13.4979C8.25923 13.4257 7.77455 13.3896 7.28807 12.9032C6.80158 12.4167 6.76551 11.932 6.69336 10.9626C6.67466 10.7114 6.66333 10.4521 6.66333 10.1929C6.66333 9.93372 6.67466 9.67451 6.69336 9.42323Z" fill="url(#paint0_linear_621_8025)"/>
<path d="M6.69336 19.4232C6.76551 18.4539 6.80158 17.9692 7.28807 17.4827C7.77455 16.9962 8.25923 16.9602 9.22859 16.888C9.47987 16.8693 9.73908 16.858 9.99829 16.858C10.2575 16.858 10.5167 16.8693 10.768 16.888C11.7373 16.9602 12.222 16.9962 12.7085 17.4827C13.195 17.9692 13.2311 18.4539 13.3032 19.4232C13.3219 19.6745 13.3333 19.9337 13.3333 20.1929C13.3333 20.4521 13.3219 20.7114 13.3032 20.9626C13.2311 21.932 13.195 22.4167 12.7085 22.9032C12.222 23.3896 11.7373 23.4257 10.768 23.4979C10.5167 23.5166 10.2575 23.5279 9.99829 23.5279C9.73908 23.5279 9.47987 23.5166 9.22859 23.4979C8.25923 23.4257 7.77455 23.3896 7.28807 22.9032C6.80158 22.4167 6.76551 21.932 6.69336 20.9626C6.67466 20.7114 6.66333 20.4521 6.66333 20.1929C6.66333 19.9337 6.67466 19.6745 6.69336 19.4232Z" fill="url(#paint1_linear_621_8025)"/>
<path d="M7.28807 27.4827C6.80158 27.9692 6.76551 28.4539 6.69336 29.4232C6.67466 29.6745 6.66333 29.9337 6.66333 30.1929C6.66333 30.4521 6.67466 30.7114 6.69336 30.9626C6.76551 31.932 6.80158 32.4167 7.28807 32.9032C7.77455 33.3896 8.25923 33.4257 9.22859 33.4979C9.47987 33.5166 9.73908 33.5279 9.99829 33.5279C10.2575 33.5279 10.5167 33.5166 10.768 33.4979C11.7373 33.4257 12.222 33.3896 12.7085 32.9032C13.195 32.4167 13.2311 31.932 13.3032 30.9626C13.3219 30.7114 13.3333 30.4521 13.3333 30.1929C13.3333 29.9337 13.3219 29.6745 13.3032 29.4232C13.2311 28.4539 13.195 27.9692 12.7085 27.4827C12.222 26.9962 11.7373 26.9601 10.768 26.888C10.5167 26.8693 10.2575 26.858 9.99829 26.858C9.73908 26.858 9.47987 26.8693 9.22859 26.888C8.25923 26.9601 7.77455 26.9962 7.28807 27.4827Z" fill="url(#paint2_linear_621_8025)"/>
<path d="M26.6966 9.42323C26.7688 8.45387 26.8048 7.9692 27.2913 7.48271C27.7778 6.99622 28.2625 6.96015 29.2318 6.88801C29.4831 6.8693 29.7423 6.85797 30.0015 6.85797C30.2608 6.85797 30.52 6.8693 30.7712 6.88801C31.7406 6.96015 32.2253 6.99622 32.7118 7.48271C33.1983 7.9692 33.2343 8.45387 33.3065 9.42323C33.3252 9.67451 33.3365 9.93372 33.3365 10.1929C33.3365 10.4521 33.3252 10.7114 33.3065 10.9626C33.2343 11.932 33.1983 12.4167 32.7118 12.9032C32.2253 13.3896 31.7406 13.4257 30.7712 13.4979C30.52 13.5166 30.2608 13.5279 30.0015 13.5279C29.7423 13.5279 29.4831 13.5166 29.2318 13.4979C28.2625 13.4257 27.7778 13.3896 27.2913 12.9032C26.8048 12.4167 26.7688 11.932 26.6966 10.9626C26.6779 10.7114 26.6666 10.4521 26.6666 10.1929C26.6666 9.93372 26.6779 9.67451 26.6966 9.42323Z" fill="url(#paint3_linear_621_8025)"/>
<path d="M27.2913 17.4827C26.8048 17.9692 26.7688 18.4539 26.6966 19.4232C26.6779 19.6745 26.6666 19.9337 26.6666 20.1929C26.6666 20.4521 26.6779 20.7114 26.6966 20.9626C26.7688 21.932 26.8048 22.4167 27.2913 22.9032C27.7778 23.3896 28.2625 23.4257 29.2318 23.4979C29.4831 23.5166 29.7423 23.5279 30.0015 23.5279C30.2608 23.5279 30.52 23.5166 30.7712 23.4979C31.7406 23.4257 32.2253 23.3896 32.7118 22.9032C33.1983 22.4167 33.2343 21.932 33.3065 20.9626C33.3252 20.7114 33.3365 20.4521 33.3365 20.1929C33.3365 19.9337 33.3252 19.6745 33.3065 19.4232C33.2343 18.4539 33.1983 17.9692 32.7118 17.4827C32.2253 16.9962 31.7406 16.9602 30.7712 16.888C30.52 16.8693 30.2608 16.858 30.0015 16.858C29.7423 16.858 29.4831 16.8693 29.2318 16.888C28.2625 16.9602 27.7778 16.9962 27.2913 17.4827Z" fill="url(#paint4_linear_621_8025)"/>
<path d="M26.6966 29.4232C26.7688 28.4539 26.8048 27.9692 27.2913 27.4827C27.7778 26.9962 28.2625 26.9601 29.2318 26.888C29.4831 26.8693 29.7423 26.858 30.0015 26.858C30.2608 26.858 30.52 26.8693 30.7712 26.888C31.7406 26.9601 32.2253 26.9962 32.7118 27.4827C33.1983 27.9692 33.2343 28.4539 33.3065 29.4232C33.3252 29.6745 33.3365 29.9337 33.3365 30.1929C33.3365 30.4521 33.3252 30.7114 33.3065 30.9626C33.2343 31.932 33.1983 32.4167 32.7118 32.9032C32.2253 33.3896 31.7406 33.4257 30.7712 33.4979C30.52 33.5166 30.2608 33.5279 30.0015 33.5279C29.7423 33.5279 29.4831 33.5166 29.2318 33.4979C28.2625 33.4257 27.7778 33.3896 27.2913 32.9032C26.8048 32.4167 26.7688 31.932 26.6966 30.9626C26.6779 30.7114 26.6666 30.4521 26.6666 30.1929C26.6666 29.9337 26.6779 29.6745 26.6966 29.4232Z" fill="url(#paint5_linear_621_8025)"/>
<path d="M17.2913 7.48271C16.8048 7.9692 16.7688 8.45387 16.6966 9.42323C16.6779 9.67451 16.6666 9.93372 16.6666 10.1929C16.6666 10.4521 16.6779 10.7114 16.6966 10.9626C16.7688 11.932 16.8048 12.4167 17.2913 12.9032C17.7778 13.3896 18.2625 13.4257 19.2318 13.4979C19.4831 13.5166 19.7423 13.5279 20.0015 13.5279C20.2608 13.5279 20.52 13.5166 20.7712 13.4979C21.7406 13.4257 22.2253 13.3896 22.7118 12.9032C23.1983 12.4167 23.2343 11.932 23.3065 10.9626C23.3252 10.7114 23.3365 10.4521 23.3365 10.1929C23.3365 9.93372 23.3252 9.67451 23.3065 9.42323C23.2343 8.45387 23.1983 7.9692 22.7118 7.48271C22.2253 6.99622 21.7406 6.96015 20.7712 6.88801C20.52 6.8693 20.2608 6.85797 20.0015 6.85797C19.7423 6.85797 19.4831 6.8693 19.2318 6.88801C18.2625 6.96015 17.7778 6.99622 17.2913 7.48271Z" fill="url(#paint6_linear_621_8025)"/>
<path d="M16.6966 19.4232C16.7688 18.4539 16.8048 17.9692 17.2913 17.4827C17.7778 16.9962 18.2625 16.9602 19.2318 16.888C19.4831 16.8693 19.7423 16.858 20.0015 16.858C20.2608 16.858 20.52 16.8693 20.7712 16.888C21.7406 16.9602 22.2253 16.9962 22.7118 17.4827C23.1983 17.9692 23.2343 18.4539 23.3065 19.4232C23.3252 19.6745 23.3365 19.9337 23.3365 20.1929C23.3365 20.4521 23.3252 20.7114 23.3065 20.9626C23.2343 21.932 23.1983 22.4167 22.7118 22.9032C22.2253 23.3896 21.7406 23.4257 20.7712 23.4979C20.52 23.5166 20.2608 23.5279 20.0015 23.5279C19.7423 23.5279 19.4831 23.5166 19.2318 23.4979C18.2625 23.4257 17.7778 23.3896 17.2913 22.9032C16.8048 22.4167 16.7688 21.932 16.6966 20.9626C16.6779 20.7114 16.6666 20.4521 16.6666 20.1929C16.6666 19.9337 16.6779 19.6745 16.6966 19.4232Z" fill="url(#paint7_linear_621_8025)"/>
<path d="M17.2913 27.4827C16.8048 27.9692 16.7688 28.4539 16.6966 29.4232C16.6779 29.6745 16.6666 29.9337 16.6666 30.1929C16.6666 30.4521 16.6779 30.7114 16.6966 30.9626C16.7688 31.932 16.8048 32.4167 17.2913 32.9032C17.7778 33.3896 18.2625 33.4257 19.2318 33.4979C19.4831 33.5166 19.7423 33.5279 20.0015 33.5279C20.2608 33.5279 20.52 33.5166 20.7712 33.4979C21.7406 33.4257 22.2253 33.3896 22.7118 32.9032C23.1983 32.4167 23.2343 31.932 23.3065 30.9626C23.3252 30.7114 23.3365 30.4521 23.3365 30.1929C23.3365 29.9337 23.3252 29.6745 23.3065 29.4232C23.2343 28.4539 23.1983 27.9692 22.7118 27.4827C22.2253 26.9962 21.7406 26.9601 20.7712 26.888C20.52 26.8693 20.2608 26.858 20.0015 26.858C19.7423 26.858 19.4831 26.8693 19.2318 26.888C18.2625 26.9601 17.7778 26.9962 17.2913 27.4827Z" fill="url(#paint8_linear_621_8025)"/>
<defs>
<linearGradient id="paint0_linear_621_8025" x1="19.9999" y1="6.85797" x2="19.9999" y2="33.5279" gradientUnits="userSpaceOnUse">
<stop stop-color="#58B3FF"/>
<stop offset="1" stop-color="#005FAE"/>
</linearGradient>
<linearGradient id="paint1_linear_621_8025" x1="19.9999" y1="6.85797" x2="19.9999" y2="33.5279" gradientUnits="userSpaceOnUse">
<stop stop-color="#58B3FF"/>
<stop offset="1" stop-color="#005FAE"/>
</linearGradient>
<linearGradient id="paint2_linear_621_8025" x1="19.9999" y1="6.85797" x2="19.9999" y2="33.5279" gradientUnits="userSpaceOnUse">
<stop stop-color="#58B3FF"/>
<stop offset="1" stop-color="#005FAE"/>
</linearGradient>
<linearGradient id="paint3_linear_621_8025" x1="19.9999" y1="6.85797" x2="19.9999" y2="33.5279" gradientUnits="userSpaceOnUse">
<stop stop-color="#58B3FF"/>
<stop offset="1" stop-color="#005FAE"/>
</linearGradient>
<linearGradient id="paint4_linear_621_8025" x1="19.9999" y1="6.85797" x2="19.9999" y2="33.5279" gradientUnits="userSpaceOnUse">
<stop stop-color="#58B3FF"/>
<stop offset="1" stop-color="#005FAE"/>
</linearGradient>
<linearGradient id="paint5_linear_621_8025" x1="19.9999" y1="6.85797" x2="19.9999" y2="33.5279" gradientUnits="userSpaceOnUse">
<stop stop-color="#58B3FF"/>
<stop offset="1" stop-color="#005FAE"/>
</linearGradient>
<linearGradient id="paint6_linear_621_8025" x1="19.9999" y1="6.85797" x2="19.9999" y2="33.5279" gradientUnits="userSpaceOnUse">
<stop stop-color="#58B3FF"/>
<stop offset="1" stop-color="#005FAE"/>
</linearGradient>
<linearGradient id="paint7_linear_621_8025" x1="19.9999" y1="6.85797" x2="19.9999" y2="33.5279" gradientUnits="userSpaceOnUse">
<stop stop-color="#58B3FF"/>
<stop offset="1" stop-color="#005FAE"/>
</linearGradient>
<linearGradient id="paint8_linear_621_8025" x1="19.9999" y1="6.85797" x2="19.9999" y2="33.5279" gradientUnits="userSpaceOnUse">
<stop stop-color="#58B3FF"/>
<stop offset="1" stop-color="#005FAE"/>
</linearGradient>
</defs>
</svg>
