<svg width="16" height="9" viewBox="0 0 16 9" fill="none" xmlns="http://www.w3.org/2000/svg">
<path d="M1.01246 8.5C0.112259 8.5 -0.338563 7.42341 0.297975 6.79377C0.297975 6.79377 0.297975 6.79377 0.297975 6.79377L3.4273 3.69835C5.58289 1.56612 6.66069 0.499999 8.00001 0.5C9.33932 0.5 10.4171 1.56612 12.5727 3.69836L15.702 6.79377C16.3386 7.42341 15.8877 8.5 14.9875 8.5C14.7196 8.5 14.4625 8.3947 14.2731 8.20726L11.1437 5.11185C10.0255 4.00577 9.32762 3.32141 8.75443 2.88882C8.23709 2.49838 8.05648 2.49883 8.00276 2.49897L8.00001 2.49897L7.99725 2.49897C7.94353 2.49883 7.76292 2.49838 7.24558 2.88882C6.67239 3.3214 5.97446 4.00577 4.85627 5.11184L1.72695 8.20726C1.72695 8.20726 1.72695 8.20726 1.72695 8.20726C1.53745 8.3947 1.28044 8.5 1.01246 8.5Z" fill="#005FAE"/>
</svg>
