<svg width="41" height="41" viewBox="0 0 41 41" fill="none" xmlns="http://www.w3.org/2000/svg">
<rect width="40" height="40" transform="translate(0.715088 0.191284)" fill="white"/>
<circle cx="20.7151" cy="20.1913" r="20" fill="#ADADAD"/>
<path d="M8.1693 33.5597C7.90917 33.3155 7.99846 32.89 8.33189 32.763C8.59898 32.6612 8.87456 32.5582 9.15863 32.4521C10.9908 31.7673 13.176 30.9506 15.7128 29.49V27.1586C14.2161 26.1043 13.8056 24.4392 13.323 22.4819C13.2884 22.3415 13.2534 22.1996 13.2176 22.0562H13.1582C12.9205 22.0562 12.6829 21.6994 12.6829 21.2831C12.6829 21.2236 12.6978 21.1939 12.7126 21.1642C12.7275 21.1344 12.7423 21.1047 12.7423 21.0452C12.5641 20.8074 12.3859 20.4505 12.267 20.0342C12.2385 19.9296 12.2009 19.8083 12.1598 19.6755C11.9436 18.9783 11.6301 17.9671 12.0294 17.4175C12.5047 17.0013 12.7423 17.477 12.7423 17.477L12.7333 17.4295C12.0807 13.9858 11.2197 9.44198 16.0098 8.02124C16.0098 5.04773 27.2977 6.35607 28.6047 11.2326C29.2583 13.1357 28.4265 17.4175 28.4265 17.4175C28.6047 17.1202 28.8424 17.0013 29.08 17.2391C29.6463 17.5999 29.1866 18.9877 28.9378 19.7386C28.8995 19.8543 28.8662 19.9549 28.8424 20.0342C28.7236 20.5695 28.5453 20.8668 28.3671 21.1642L28.4265 21.2831C28.4265 21.6994 28.1889 22.0562 27.9512 22.0562C27.6542 23.9593 27.1195 26.1002 25.6343 27.1112V29.49C28.1059 30.913 30.2436 31.7557 32.0464 32.4662C32.3811 32.5982 32.7043 32.7255 33.0159 32.8512C33.3444 32.9837 33.4271 33.4065 33.1672 33.6472C29.8976 36.6744 25.5224 38.5246 20.7152 38.5246C15.8618 38.5246 11.4489 36.6387 8.1693 33.5597Z" fill="white"/>
<circle cx="20.7151" cy="20.1913" r="19.5" stroke="#ADADAD"/>
</svg>
