<svg width="25" height="24" viewBox="0 0 25 24" fill="none" xmlns="http://www.w3.org/2000/svg">
<path fill-rule="evenodd" clip-rule="evenodd" d="M11.6526 5.00146C12.2948 5.00146 12.9442 5.02958 13.5813 5.077C16.3317 5.2817 16.8462 5.39545 17.5524 6.10165C17.7857 6.33494 18.0918 6.5 18.4218 6.5H18.4988C19.2872 6.5 19.8373 5.71587 19.3418 5.10272C19.2291 4.96333 19.1046 4.82541 18.9666 4.68743C17.6537 3.37456 16.3458 3.27721 13.7298 3.08252C13.0516 3.03205 12.3521 3.00146 11.6526 3.00146C10.9531 3.00146 10.2535 3.03205 9.57541 3.08252C6.95942 3.27721 5.65143 3.37456 4.33856 4.68743C3.02568 6.00031 2.92834 7.3083 2.73364 9.92429C2.68317 10.6024 2.65259 11.3019 2.65259 12.0015C2.65259 12.701 2.68317 13.4005 2.73364 14.0786C2.92834 16.6946 3.02568 18.0026 4.33856 19.3155C5.65143 20.6284 6.95942 20.7257 9.57541 20.9204C10.2535 20.9709 10.9531 21.0015 11.6526 21.0015C12.3521 21.0015 13.0516 20.9709 13.7298 20.9204C16.3458 20.7257 17.6537 20.6284 18.9666 19.3155C19.1059 19.1762 19.2315 19.037 19.345 18.8963C19.8393 18.2832 19.2893 17.5 18.5017 17.5H18.4274C18.0953 17.5 17.7872 17.6665 17.5524 17.9013C16.8462 18.6075 16.3317 18.7212 13.5813 18.9259C12.9442 18.9733 12.2948 19.0015 11.6526 19.0015C11.0104 19.0015 10.361 18.9733 9.72385 18.9259C6.97349 18.7212 6.45897 18.6075 5.75277 17.9013C5.04657 17.1951 4.93282 16.6806 4.72812 13.9302C4.68071 13.293 4.65259 12.6437 4.65259 12.0015C4.65259 11.3593 4.68071 10.7099 4.72812 10.0727C4.93282 7.32237 5.04657 6.80785 5.75277 6.10165C6.45897 5.39545 6.97349 5.2817 9.72385 5.077C10.361 5.02958 11.0104 5.00146 11.6526 5.00146ZM18.0146 15.937C17.3481 16.3369 16.5001 15.8568 16.5001 15.0795C16.5001 14.7282 16.6844 14.4027 16.9856 14.222L17.259 14.058C17.9593 13.6378 18.5298 13.294 18.9958 12.9993H10.5001C9.94781 12.9993 9.5001 12.5516 9.5001 11.9993C9.5001 11.447 9.94781 10.9993 10.5001 10.9993L18.9935 10.9993C18.528 10.7048 17.9581 10.3615 17.259 9.94202L16.9856 9.77798C16.6844 9.59726 16.5001 9.27175 16.5001 8.92049C16.5001 8.1432 17.3481 7.66308 18.0146 8.063L18.288 8.22703C21.0961 9.91193 22.5001 10.7544 22.5001 12C22.5001 13.2456 21.0961 14.0881 18.288 15.773L18.0146 15.937Z" fill="white"/>
</svg>
