<svg width="27" height="28" viewBox="0 0 27 28" fill="none" xmlns="http://www.w3.org/2000/svg">
<path fill-rule="evenodd" clip-rule="evenodd" d="M6.00008 3.99984C5.72639 3.99984 5.44511 4.00903 5.16085 4.02582C4.68882 4.05371 4.36113 4.07357 4.08312 4.10082C3.85992 4.12269 3.73172 4.14392 3.65954 4.15929C3.64417 4.23148 3.62294 4.35968 3.60106 4.58288C3.57381 4.86088 3.55395 5.18857 3.52607 5.6606C3.50927 5.94486 3.50008 6.22614 3.50008 6.49984C3.50008 6.77353 3.50927 7.05481 3.52607 7.33907C3.55395 7.8111 3.57381 8.13879 3.60106 8.4168C3.62294 8.64 3.64417 8.7682 3.65954 8.84038C3.73172 8.85575 3.85992 8.87698 4.08312 8.89886C4.36113 8.92611 4.68882 8.94597 5.16085 8.97385C5.44511 8.99065 5.72639 8.99984 6.00008 8.99984C6.27378 8.99984 6.55505 8.99065 6.83932 8.97385C7.31135 8.94597 7.63904 8.92611 7.91704 8.89886C8.14024 8.87698 8.26844 8.85575 8.34062 8.84038C8.356 8.7682 8.37723 8.64 8.3991 8.4168C8.42635 8.13879 8.44621 7.8111 8.4741 7.33907C8.49089 7.05481 8.50008 6.77353 8.50008 6.49984C8.50008 6.22614 8.49089 5.94486 8.4741 5.6606C8.44621 5.18857 8.42635 4.86088 8.3991 4.58288C8.37723 4.35968 8.356 4.23148 8.34062 4.15929C8.26844 4.14392 8.14024 4.12269 7.91704 4.10082C7.63904 4.07357 7.31135 4.05371 6.83932 4.02582C6.55505 4.00903 6.27378 3.99984 6.00008 3.99984ZM1.30002 1.79978C0.35943 2.74037 0.305798 3.64826 0.198533 5.46403C0.178382 5.80514 0.166748 6.15249 0.166748 6.49984C0.166748 6.84718 0.178382 7.19453 0.198533 7.53564C0.305798 9.35142 0.35943 10.2593 1.30002 11.1999C2.24061 12.1405 3.1485 12.1941 4.96428 12.3014C5.30539 12.3215 5.65273 12.3332 6.00008 12.3332C6.34743 12.3332 6.69478 12.3215 7.03589 12.3014C8.85166 12.1941 9.75955 12.1405 10.7001 11.1999C11.6407 10.2593 11.6944 9.35142 11.8016 7.53564C11.8218 7.19453 11.8334 6.84718 11.8334 6.49984C11.8334 6.15249 11.8218 5.80514 11.8016 5.46403C11.6944 3.64826 11.6407 2.74037 10.7001 1.79978C9.75955 0.859186 8.85166 0.805553 7.03589 0.698289C6.69477 0.678138 6.34743 0.666504 6.00008 0.666504C5.65273 0.666504 5.30539 0.678138 4.96428 0.698289C3.1485 0.805554 2.24061 0.859186 1.30002 1.79978ZM20.1608 4.02582C20.4451 4.00903 20.7264 3.99984 21.0001 3.99984C21.2738 3.99984 21.5551 4.00903 21.8393 4.02582C22.3113 4.05371 22.639 4.07357 22.917 4.10082C23.1402 4.12269 23.2684 4.14392 23.3406 4.15929C23.356 4.23148 23.3772 4.35968 23.3991 4.58288C23.4263 4.86088 23.4462 5.18857 23.4741 5.6606C23.4909 5.94486 23.5001 6.22614 23.5001 6.49984C23.5001 6.77353 23.4909 7.05481 23.4741 7.33907C23.4462 7.8111 23.4263 8.13879 23.3991 8.4168C23.3772 8.64 23.356 8.7682 23.3406 8.84038C23.2684 8.85575 23.1402 8.87698 22.917 8.89886C22.639 8.92611 22.3113 8.94597 21.8393 8.97385C21.5551 8.99065 21.2738 8.99984 21.0001 8.99984C20.7264 8.99984 20.4451 8.99065 20.1608 8.97385C19.6888 8.94597 19.3611 8.92611 19.0831 8.89886C18.8599 8.87698 18.7317 8.85575 18.6595 8.84038C18.6442 8.7682 18.6229 8.64 18.6011 8.4168C18.5738 8.13879 18.5539 7.8111 18.5261 7.33907C18.5093 7.05481 18.5001 6.77353 18.5001 6.49984C18.5001 6.22614 18.5093 5.94486 18.5261 5.6606C18.5539 5.18857 18.5738 4.86088 18.6011 4.58288C18.6229 4.35968 18.6442 4.23148 18.6595 4.15929C18.7317 4.14392 18.8599 4.12269 19.0831 4.10082C19.3611 4.07357 19.6888 4.05371 20.1608 4.02582ZM15.1985 5.46403C15.3058 3.64826 15.3594 2.74037 16.3 1.79978C17.2406 0.859186 18.1485 0.805554 19.9643 0.698289C20.3054 0.678138 20.6527 0.666504 21.0001 0.666504C21.3474 0.666504 21.6948 0.678138 22.0359 0.698289C23.8517 0.805553 24.7595 0.859186 25.7001 1.79978C26.6407 2.74037 26.6944 3.64826 26.8016 5.46403C26.8218 5.80514 26.8334 6.15249 26.8334 6.49984C26.8334 6.84718 26.8218 7.19453 26.8016 7.53564C26.6944 9.35142 26.6407 10.2593 25.7001 11.1999C24.7595 12.1405 23.8517 12.1941 22.0359 12.3014C21.6948 12.3215 21.3474 12.3332 21.0001 12.3332C20.6527 12.3332 20.3054 12.3215 19.9643 12.3014C18.1485 12.1941 17.2406 12.1405 16.3 11.1999C15.3594 10.2593 15.3058 9.35142 15.1985 7.53564C15.1784 7.19453 15.1667 6.84718 15.1667 6.49984C15.1667 6.15249 15.1784 5.80514 15.1985 5.46403ZM6.00008 18.9998C5.72639 18.9998 5.44511 19.009 5.16085 19.0258C4.68882 19.0537 4.36113 19.0736 4.08312 19.1008C3.85992 19.1227 3.73172 19.1439 3.65954 19.1593C3.64417 19.2315 3.62294 19.3597 3.60106 19.5829C3.57381 19.8609 3.55395 20.1886 3.52607 20.6606C3.50927 20.9449 3.50008 21.2261 3.50008 21.4998C3.50008 21.7735 3.50927 22.0548 3.52607 22.3391C3.55395 22.8111 3.57381 23.1388 3.60106 23.4168C3.62294 23.64 3.64417 23.7682 3.65954 23.8404C3.73172 23.8558 3.85992 23.877 4.08312 23.8989C4.36113 23.9261 4.68882 23.946 5.16085 23.9739C5.44511 23.9906 5.72639 23.9998 6.00008 23.9998C6.27378 23.9998 6.55505 23.9906 6.83932 23.9739C7.31135 23.946 7.63904 23.9261 7.91704 23.8989C8.14024 23.877 8.26844 23.8558 8.34062 23.8404C8.356 23.7682 8.37723 23.64 8.3991 23.4168C8.42635 23.1388 8.44621 22.8111 8.4741 22.3391C8.49089 22.0548 8.50008 21.7735 8.50008 21.4998C8.50008 21.2261 8.49089 20.9449 8.4741 20.6606C8.44621 20.1886 8.42635 19.8609 8.3991 19.5829C8.37723 19.3597 8.356 19.2315 8.34062 19.1593C8.26844 19.1439 8.14024 19.1227 7.91704 19.1008C7.63904 19.0736 7.31135 19.0537 6.83932 19.0258C6.55505 19.009 6.27378 18.9998 6.00008 18.9998ZM1.30002 16.7998C0.35943 17.7404 0.305798 18.6483 0.198533 20.464C0.178382 20.8051 0.166748 21.1525 0.166748 21.4998C0.166748 21.8472 0.178382 22.1945 0.198533 22.5356C0.305798 24.3514 0.35943 25.2593 1.30002 26.1999C2.24061 27.1405 3.1485 27.1941 4.96428 27.3014C5.30539 27.3215 5.65273 27.3332 6.00008 27.3332C6.34743 27.3332 6.69478 27.3215 7.03589 27.3014C8.85166 27.1941 9.75955 27.1405 10.7001 26.1999C11.6407 25.2593 11.6944 24.3514 11.8016 22.5356C11.8218 22.1945 11.8334 21.8472 11.8334 21.4998C11.8334 21.1525 11.8218 20.8051 11.8016 20.464C11.6944 18.6483 11.6407 17.7404 10.7001 16.7998C9.75955 15.8592 8.85166 15.8056 7.03589 15.6983C6.69477 15.6781 6.34743 15.6665 6.00008 15.6665C5.65273 15.6665 5.30539 15.6781 4.96428 15.6983C3.1485 15.8056 2.24061 15.8592 1.30002 16.7998ZM20.1724 23.6744C20.2113 22.5379 20.2307 21.9697 20.8503 21.3501C21.47 20.7304 22.0382 20.711 23.1746 20.6722C23.2827 20.6685 23.3914 20.6665 23.5001 20.6665C23.6088 20.6665 23.7175 20.6685 23.8256 20.6722C24.962 20.711 25.5302 20.7304 26.1498 21.3501C26.7695 21.9697 26.7889 22.5379 26.8277 23.6744C26.8314 23.7825 26.8334 23.8911 26.8334 23.9998C26.8334 24.1085 26.8314 24.2172 26.8277 24.3253C26.7889 25.4617 26.7695 26.0299 26.1498 26.6496C25.5302 27.2692 24.962 27.2886 23.8256 27.3275C23.7175 27.3312 23.6088 27.3332 23.5001 27.3332C23.3914 27.3332 23.2827 27.3312 23.1746 27.3275C22.0382 27.2886 21.47 27.2692 20.8503 26.6496C20.2307 26.0299 20.2113 25.4617 20.1724 24.3253C20.1687 24.2172 20.1667 24.1085 20.1667 23.9998C20.1667 23.8911 20.1687 23.7825 20.1724 23.6744ZM18.5001 20.6665C18.5001 19.746 19.2463 18.9998 20.1667 18.9998H25.1667C26.0872 18.9998 26.8334 18.2536 26.8334 17.3332C26.8334 16.4127 26.0872 15.6665 25.1667 15.6665H20.1667C17.4053 15.6665 15.1667 17.9051 15.1667 20.6665V25.6665C15.1667 26.587 15.9129 27.3332 16.8334 27.3332C17.7539 27.3332 18.5001 26.587 18.5001 25.6665V20.6665Z" fill="#F2F2F2"/>
</svg>
