<svg width="15" height="16" viewBox="0 0 15 16" fill="none" xmlns="http://www.w3.org/2000/svg">
<path d="M13.9264 3.56703C14.0866 3.40685 14.1667 3.19692 14.1667 2.98698C14.1667 2.77704 14.0866 2.56711 13.9264 2.40693C13.7662 2.24675 13.5563 2.16667 13.3464 2.16667C13.1364 2.16667 12.9265 2.24675 12.7663 2.40693L7.5 7.68626L5.15036 5.3236C4.99019 5.16342 4.78025 5.08333 4.57031 5.08333C4.36038 5.08333 4.15044 5.16342 3.99026 5.3236C3.83009 5.48377 3.75 5.69371 3.75 5.90365C3.75 6.11358 3.83009 6.32352 3.99026 6.48369L6.91995 9.4264C7.08013 9.58658 7.29006 9.66667 7.5 9.66667C7.70994 9.66667 7.91987 9.58658 8.08005 9.4264L13.9264 3.56703Z" fill="white"/>
<path d="M10.5921 2.08275L10.6075 2.0674L10.6137 2.0608C10.7601 1.90646 10.829 1.71563 10.8333 1.52486C10.8405 1.20811 10.6786 0.892334 10.3921 0.743439C10.2172 0.685801 10.1116 0.661544 9.90013 0.637841C9.09761 0.5556 8.35926 0.5 7.5 0.5C6.91706 0.5 6.33413 0.525486 5.76902 0.567544C3.58903 0.72979 2.49903 0.810913 1.40497 1.90497C0.310913 2.99903 0.22979 4.08903 0.0675443 6.26902C0.0254861 6.83413 0 7.41706 0 8C0 8.58294 0.0254861 9.16587 0.0675443 9.73098C0.22979 11.911 0.310913 13.001 1.40497 14.095C2.49903 15.1891 3.58903 15.2702 5.76902 15.4325C6.33413 15.4745 6.91706 15.5 7.5 15.5C8.08294 15.5 8.66587 15.4745 9.23098 15.4325C11.411 15.2702 12.501 15.1891 13.595 14.095C14.6891 13.001 14.7702 11.911 14.9325 9.73098C14.9745 9.16587 15 8.58294 15 8C15 7.67313 14.992 7.59139 14.9775 7.26765C14.9547 6.75654 14.5833 6.33333 14.0708 6.33333C13.5957 6.33333 13.2894 6.75928 13.3051 7.18541L13.3067 7.21944C13.3238 7.56027 13.3333 7.65845 13.3333 8C13.3333 8.53518 13.3099 9.07632 13.2704 9.60728C13.0998 11.8992 13.005 12.328 12.4165 12.9165C11.828 13.505 11.3992 13.5998 9.10728 13.7704C8.57632 13.8099 8.03518 13.8333 7.5 13.8333C6.96482 13.8333 6.42368 13.8099 5.89272 13.7704C3.60075 13.5998 3.17198 13.505 2.58348 12.9165C1.99499 12.328 1.90019 11.8992 1.72961 9.60728C1.6901 9.07632 1.66667 8.53518 1.66667 8C1.66667 7.46482 1.6901 6.92368 1.72961 6.39272C1.90019 4.10075 1.99499 3.67198 2.58348 3.08348C3.17198 2.49499 3.60075 2.40019 5.89272 2.22961C6.42368 2.1901 6.96482 2.16667 7.5 2.16667C8.35615 2.16667 9.0968 2.22648 9.90013 2.31374L9.92778 2.31669C10.1769 2.3411 10.4133 2.25785 10.5921 2.08275Z" fill="white"/>
</svg>
