<svg width="17" height="16" viewBox="0 0 17 16" fill="none" xmlns="http://www.w3.org/2000/svg">
<path d="M1.31998 6.20929C1.49679 3.83357 1.58947 2.96846 2.52897 2.02897C3.46846 1.08947 4.33357 0.996791 6.70929 0.819979C7.2967 0.77626 7.89969 0.75 8.5 0.75C9.10031 0.75 9.7033 0.77626 10.2907 0.819979C12.6664 0.996791 13.5315 1.08947 14.471 2.02897C15.4105 2.96846 15.5032 3.83357 15.68 6.20929C15.7237 6.7967 15.75 7.39969 15.75 8C15.75 8.60031 15.7237 9.2033 15.68 9.79072C15.5032 12.1664 15.4105 13.0315 14.471 13.971C13.5315 14.9105 12.6664 15.0032 10.2907 15.18C9.7033 15.2237 9.10031 15.25 8.5 15.25C7.89969 15.25 7.2967 15.2237 6.70929 15.18C4.33357 15.0032 3.46846 14.9105 2.52897 13.971C1.58947 13.0315 1.49679 12.1664 1.31998 9.79072C1.27626 9.2033 1.25 8.60031 1.25 8C1.25 7.39969 1.27626 6.7967 1.31998 6.20929Z" stroke="#262626" stroke-width="1.5"/>
</svg>
