<svg width="12" height="7" viewBox="0 0 12 7" fill="none" xmlns="http://www.w3.org/2000/svg">
<path d="M0.759346 0.75C0.0841946 0.75 -0.253923 1.55744 0.223481 2.02967C0.223481 2.02967 0.223481 2.02967 0.223481 2.02967L2.57047 4.35123C4.18717 5.95041 4.99552 6.75 6 6.75C7.00449 6.75 7.81284 5.95041 9.42953 4.35123L11.7765 2.02967C12.2539 1.55744 11.9158 0.75 11.2407 0.75C11.0397 0.75 10.8469 0.828977 10.7048 0.969558L8.35781 3.29111C7.51916 4.12067 6.99571 4.63395 6.56582 4.95839C6.17782 5.25122 6.04236 5.25087 6.00207 5.25077L6 5.25077L5.99794 5.25077C5.95765 5.25087 5.82219 5.25122 5.43418 4.95839C5.00429 4.63395 4.48085 4.12068 3.6422 3.29112L1.29521 0.969557C1.29521 0.969557 1.29521 0.969557 1.29521 0.969557C1.15309 0.828977 0.960333 0.75 0.759346 0.75Z" fill="#1D2023"/>
</svg>
