<svg width="24" height="25" viewBox="0 0 24 25" fill="none" xmlns="http://www.w3.org/2000/svg">
<g clip-path="url(#clip0_582_31894)">
<path d="M8 7.5C7.44772 7.5 7 7.94772 7 8.5C7 9.05228 7.44772 9.5 8 9.5H15C15.5523 9.5 16 9.05228 16 8.5C16 7.94772 15.5523 7.5 15 7.5H8Z" fill="#1D2023"/>
<path d="M7 12.5C7 11.9477 7.44772 11.5 8 11.5H16C16.5523 11.5 17 11.9477 17 12.5C17 13.0523 16.5523 13.5 16 13.5H8C7.44772 13.5 7 13.0523 7 12.5Z" fill="#1D2023"/>
<path d="M8 15.5C7.44772 15.5 7 15.9477 7 16.5C7 17.0523 7.44772 17.5 8 17.5H14C14.5523 17.5 15 17.0523 15 16.5C15 15.9477 14.5523 15.5 14 15.5H8Z" fill="#1D2023"/>
<path fill-rule="evenodd" clip-rule="evenodd" d="M3.08105 10.4228C3.27575 7.80684 3.3731 6.49884 4.68597 5.18597C5.99884 3.8731 7.30684 3.77575 9.92282 3.58105C10.601 3.53058 11.3005 3.5 12 3.5C12.6995 3.5 13.399 3.53058 14.0772 3.58105C16.6932 3.77575 18.0012 3.8731 19.314 5.18597C20.6269 6.49884 20.7243 7.80684 20.9189 10.4228C20.9694 11.101 21 11.8005 21 12.5C21 13.1995 20.9694 13.899 20.9189 14.5772C20.7243 17.1932 20.6269 18.5012 19.314 19.814C18.0012 21.1269 16.6932 21.2243 14.0772 21.4189C13.399 21.4694 12.6995 21.5 12 21.5C11.3005 21.5 10.601 21.4694 9.92282 21.4189C7.30684 21.2243 5.99884 21.1269 4.68597 19.814C3.3731 18.5012 3.27575 17.1932 3.08105 14.5772C3.03058 13.899 3 13.1995 3 12.5C3 11.8005 3.03058 11.101 3.08105 10.4228ZM10.0713 5.57554C10.7084 5.52812 11.3578 5.5 12 5.5C12.6422 5.5 13.2916 5.52812 13.9287 5.57554C16.6791 5.78023 17.1936 5.89398 17.8998 6.60018C18.606 7.30638 18.7198 7.8209 18.9245 10.5713C18.9719 11.2084 19 11.8578 19 12.5C19 13.1422 18.9719 13.7916 18.9245 14.4287C18.7198 17.1791 18.606 17.6936 17.8998 18.3998C17.1936 19.106 16.6791 19.2198 13.9287 19.4245C13.2916 19.4719 12.6422 19.5 12 19.5C11.3578 19.5 10.7084 19.4719 10.0713 19.4245C7.3209 19.2198 6.80638 19.106 6.10018 18.3998C5.39398 17.6936 5.28023 17.1791 5.07554 14.4287C5.02812 13.7916 5 13.1422 5 12.5C5 11.8578 5.02812 11.2084 5.07554 10.5713C5.28023 7.8209 5.39398 7.30638 6.10018 6.60018C6.80638 5.89398 7.3209 5.78023 10.0713 5.57554Z" fill="#1D2023"/>
</g>
<defs>
<clipPath id="clip0_582_31894">
<rect width="24" height="24" fill="white" transform="translate(0 0.5)"/>
</clipPath>
</defs>
</svg>
