<svg width="21" height="17" viewBox="0 0 21 17" fill="none" xmlns="http://www.w3.org/2000/svg">
<path fill-rule="evenodd" clip-rule="evenodd" d="M0.920955 9C1.44157 10.2637 2.44789 11.2931 3.9399 12.8194C4.4936 13.3858 5.07836 13.9264 5.66201 14.4292C7.64947 16.1413 8.64319 16.9973 10.4999 16.9973C12.3566 16.9973 13.3503 16.1413 15.3377 14.4292C15.9214 13.9264 16.5062 13.3859 17.0598 12.8194C18.5519 11.2931 19.5582 10.2637 20.0788 9C20.3017 8.45882 20.4356 7.87468 20.4804 7.19015C20.5071 6.78219 20.5114 6.36964 20.4804 5.96165C20.2379 2.76446 17.7754 0.251953 14.7733 0.251953C13.767 0.251953 12.8212 0.534301 11.9994 1.03014C11.4303 1.37354 10.9206 1.81935 10.4913 2.34468C10.0601 1.82104 9.54866 1.37725 8.97798 1.03623C8.16124 0.548164 7.22322 0.270572 6.2256 0.270572C3.21815 0.270572 0.752276 2.79332 0.518179 5.99989C0.506136 6.16485 0.5 6.33161 0.5 6.49994C0.5 7.34762 0.589025 8.19429 0.920955 9ZM2.55819 7.47507C2.7374 8.65133 3.39937 9.40538 5.37008 11.4214C5.88042 11.9434 6.41907 12.4416 6.96736 12.9139C9.0569 14.7139 9.50116 14.9973 10.4999 14.9973C11.4986 14.9973 11.9428 14.7139 14.0324 12.9139C14.5807 12.4416 15.1195 11.9432 15.6297 11.4214C17.5802 9.42606 18.2486 8.66691 18.4359 7.51109C18.4619 7.16853 18.5 6.82472 18.5 6.48083C18.5 3.9837 16.6766 2.25195 14.7733 2.25195C13.7287 2.25195 12.7478 2.744 12.0401 3.61012L10.4974 5.49824L8.94744 3.61604C8.24064 2.75772 7.26476 2.27057 6.2256 2.27057C4.32344 2.27057 2.5 4.00201 2.5 6.49994C2.5 6.82541 2.53451 7.15076 2.55819 7.47507Z" fill="white"/>
</svg>
