<svg width="21" height="19" viewBox="0 0 21 19" fill="none" xmlns="http://www.w3.org/2000/svg">
<path fill-rule="evenodd" clip-rule="evenodd" d="M0.792979 0.29196C1.18362 -0.0973201 1.81697 -0.0973201 2.20761 0.29196L18.2123 16.2983C18.6029 16.6876 18.6029 17.3188 18.2123 17.7081C18.0157 17.904 17.7577 18.0013 17.5 18C17.2457 17.9987 16.9917 17.9014 16.7977 17.7081L15.0157 15.9323C15.0157 15.9323 14.7415 16.1291 14.5518 16.264C14.3102 16.4358 14.0069 16.6247 13.6237 16.8634C11.6914 18.0669 10.4488 18.8408 9.52094 18.9781C9.149 19.0331 8.82763 18.9858 8.53269 18.8229C8.23775 18.66 8.02721 18.4135 7.87691 18.0702C7.50192 17.2135 7.50192 15.7537 7.50192 13.4837V8.38729L0.792979 1.70167C0.40234 1.31239 0.40234 0.681241 0.792979 0.29196ZM9.50251 10.3809L13.4946 14.3592C13.4915 14.4374 13.4872 14.5042 13.4814 14.564L13.4804 14.5743L13.4722 14.5806C13.3044 14.7088 13.055 14.8666 12.5634 15.1728C11.1525 16.0516 10.2866 16.5846 9.64952 16.8616L9.61529 16.8763L9.60973 16.8399C9.50784 16.155 9.50251 15.1413 9.50251 13.4837V10.3809Z" fill="white"/>
<path d="M7.68828 2.99623C7.89873 2.99565 8.12482 2.99556 8.3683 2.99556L14.6921 2.99555C16.2879 2.99556 17.2553 3.00094 17.9297 3.10217C17.9528 3.10563 17.9792 3.10871 18.0077 3.11203C18.1693 3.13083 18.3982 3.15745 18.4599 3.30595C18.5241 3.46041 18.4375 3.57561 18.3427 3.70174C18.3276 3.72175 18.3124 3.74203 18.2975 3.76279C17.9582 4.23574 17.3769 4.82422 16.3592 5.83832C16.0824 6.11417 15.7959 6.38475 15.5042 6.64831C14.9324 7.16496 14.4745 7.57104 14.0923 7.8892C13.6105 8.29034 13.5315 9.05037 13.9754 9.49279C14.3064 9.82263 14.8283 9.86968 15.1916 9.57554C15.6847 9.17632 16.2199 8.69269 16.8479 8.12526C17.1612 7.84221 17.4716 7.54919 17.7739 7.24803C19.7084 5.32021 20.6757 4.35628 20.4737 3.09977C20.4182 2.75477 20.2358 2.31578 20.0302 2.03275C19.2814 1.00193 17.7516 1.00193 14.6921 1.00193H8.3683C8.07855 1.00193 7.80582 1.00193 7.54897 1.00289C7.54449 1.00291 7.54536 1.00308 7.54536 1.00308C7.54752 1.0035 7.55509 1.00499 7.51171 1.01047C6.79219 1.10131 6.40266 2.04345 6.84914 2.61302C6.88683 2.6611 6.89065 2.6649 6.89829 2.67252C6.92928 2.7034 6.94477 2.71884 6.95984 2.73267C7.13611 2.8945 7.35989 2.98651 7.59938 2.99563C7.61985 2.99641 7.64266 2.99635 7.68828 2.99623Z" fill="white"/>
</svg>
