<svg width="34" height="34" viewBox="0 0 34 34" fill="none" xmlns="http://www.w3.org/2000/svg">
<path fill-rule="evenodd" clip-rule="evenodd" d="M21.7179 9.79514C21.85 9.64812 21.9835 9.50653 22.1173 9.37272C22.2511 9.23891 22.3927 9.10536 22.5397 8.97328C22.8243 8.71765 23.0186 8.54368 23.1886 8.40261C23.2662 8.33826 23.3253 8.2922 23.3695 8.25942C23.4137 8.2922 23.4728 8.33826 23.5503 8.40261C23.7204 8.54368 23.9147 8.71765 24.1992 8.97328C24.3463 9.10536 24.4878 9.23891 24.6216 9.37272C24.7555 9.50653 24.889 9.64812 25.0211 9.79514C25.2767 10.0797 25.4507 10.274 25.5918 10.444C25.6561 10.5216 25.7022 10.5807 25.735 10.6249C25.7022 10.6691 25.6561 10.7282 25.5918 10.8057C25.4507 10.9758 25.2767 11.1701 25.0211 11.4546C24.889 11.6017 24.7555 11.7432 24.6216 11.8771C24.4878 12.0109 24.3463 12.1444 24.1992 12.2765C23.9147 12.5321 23.7204 12.7061 23.5503 12.8472C23.4728 12.9115 23.4137 12.9576 23.3695 12.9904C23.3253 12.9576 23.2662 12.9115 23.1886 12.8472C23.0186 12.7061 22.8243 12.5321 22.5397 12.2765C22.3927 12.1444 22.2511 12.0109 22.1173 11.8771C21.9835 11.7432 21.85 11.6017 21.7179 11.4546C21.4622 11.1701 21.2883 10.9758 21.1472 10.8057C21.0829 10.7282 21.0368 10.6691 21.004 10.6249C21.0368 10.5807 21.0829 10.5216 21.1472 10.444C21.2883 10.274 21.4622 10.0797 21.7179 9.79514ZM19.6102 13.3481C18.6295 12.2565 18.1391 11.7107 18.1391 10.6249C18.1391 9.5391 18.6295 8.99328 19.6102 7.90164C19.772 7.72147 19.9403 7.54276 20.1138 7.36925C20.2874 7.19574 20.4661 7.02743 20.6462 6.86557C21.7379 5.88488 22.2837 5.39453 23.3695 5.39453C24.4553 5.39453 25.0011 5.88488 26.0927 6.86557C26.2729 7.02743 26.4516 7.19574 26.6251 7.36925C26.7986 7.54276 26.9669 7.72147 27.1288 7.90164C28.1095 8.99328 28.5998 9.5391 28.5998 10.6249C28.5998 11.7107 28.1095 12.2565 27.1288 13.3481C26.9669 13.5283 26.7986 13.707 26.6251 13.8805C26.4516 14.054 26.2729 14.2223 26.0927 14.3842C25.0011 15.3649 24.4553 15.8552 23.3695 15.8552C22.2837 15.8552 21.7379 15.3649 20.6462 14.3842C20.4661 14.2223 20.2874 14.054 20.1138 13.8805C19.9403 13.707 19.772 13.5283 19.6102 13.3481ZM9.76995 8.53104C10.0591 8.51108 10.3464 8.49989 10.6248 8.49989C10.9033 8.49989 11.1905 8.51108 11.4797 8.53104C11.8642 8.55759 12.1303 8.57636 12.3557 8.60044C12.4716 8.61281 12.5552 8.62455 12.6151 8.63461C12.6252 8.69451 12.6369 8.77817 12.6493 8.89403C12.6734 9.11944 12.6921 9.38557 12.7187 9.77C12.7386 10.0592 12.7498 10.3464 12.7498 10.6249C12.7498 10.9034 12.7386 11.1906 12.7187 11.4798C12.6921 11.8642 12.6734 12.1303 12.6493 12.3557C12.6369 12.4716 12.6252 12.5553 12.6151 12.6152C12.5552 12.6252 12.4716 12.637 12.3557 12.6493C12.1303 12.6734 11.8642 12.6922 11.4797 12.7187C11.1905 12.7387 10.9033 12.7499 10.6248 12.7499C10.3464 12.7499 10.0591 12.7387 9.76995 12.7187C9.38552 12.6922 9.11939 12.6734 8.89398 12.6493C8.77812 12.637 8.69446 12.6252 8.63456 12.6152C8.6245 12.5553 8.61276 12.4716 8.60039 12.3557C8.57631 12.1303 8.55754 11.8642 8.531 11.4798C8.51103 11.1906 8.49984 10.9034 8.49984 10.6249C8.49984 10.3464 8.51103 10.0592 8.531 9.77C8.55754 9.38557 8.57631 9.11944 8.60039 8.89403C8.61276 8.77817 8.6245 8.69451 8.63456 8.63461C8.69446 8.62455 8.77812 8.61281 8.89398 8.60044C9.11939 8.57636 9.38552 8.55759 9.76995 8.53104ZM5.70439 9.57486C5.80644 8.09673 5.85746 7.35766 6.60754 6.60759C7.35761 5.85751 8.09668 5.80649 9.57481 5.70444C9.91878 5.68069 10.2718 5.66655 10.6248 5.66655C10.9779 5.66655 11.3309 5.68069 11.6749 5.70444C13.153 5.80649 13.8921 5.85751 14.6421 6.60759C15.3922 7.35766 15.4432 8.09673 15.5453 9.57486C15.569 9.91883 15.5832 10.2719 15.5832 10.6249C15.5832 10.9779 15.569 11.3309 15.5453 11.6749C15.4432 13.153 15.3922 13.8921 14.6421 14.6422C13.8921 15.3923 13.153 15.4433 11.6749 15.5453C11.3309 15.5691 10.9779 15.5832 10.6248 15.5832C10.2718 15.5832 9.91878 15.5691 9.57481 15.5453C8.09668 15.4433 7.35761 15.3923 6.60754 14.6422C5.85746 13.8921 5.80644 13.153 5.70439 11.6749C5.68064 11.3309 5.6665 10.9779 5.6665 10.6249C5.6665 10.2719 5.68064 9.91883 5.70439 9.57486ZM10.6248 21.2499C10.3464 21.2499 10.0591 21.2611 9.76995 21.281C9.38552 21.3076 9.11939 21.3264 8.89398 21.3504C8.77812 21.3628 8.69446 21.3746 8.63456 21.3846C8.6245 21.4445 8.61276 21.5282 8.60039 21.644C8.57631 21.8694 8.55754 22.1356 8.531 22.52C8.51103 22.8092 8.49984 23.0964 8.49984 23.3749C8.49984 23.6534 8.51103 23.9406 8.531 24.2298C8.55754 24.6142 8.57631 24.8803 8.60039 25.1057C8.61276 25.2216 8.6245 25.3053 8.63456 25.3652C8.69446 25.3752 8.77812 25.387 8.89398 25.3993C9.11939 25.4234 9.38552 25.4422 9.76995 25.4687C10.0591 25.4887 10.3464 25.4999 10.6248 25.4999C10.9033 25.4999 11.1905 25.4887 11.4797 25.4687C11.8642 25.4422 12.1303 25.4234 12.3557 25.3993C12.4716 25.387 12.5552 25.3752 12.6151 25.3652C12.6252 25.3053 12.6369 25.2216 12.6493 25.1057C12.6734 24.8803 12.6921 24.6142 12.7187 24.2298C12.7386 23.9406 12.7498 23.6534 12.7498 23.3749C12.7498 23.0964 12.7386 22.8092 12.7187 22.52C12.6921 22.1356 12.6734 21.8694 12.6493 21.644C12.6369 21.5282 12.6252 21.4445 12.6151 21.3846C12.5552 21.3746 12.4716 21.3628 12.3557 21.3504C12.1303 21.3264 11.8642 21.3076 11.4797 21.281C11.1905 21.2611 10.9033 21.2499 10.6248 21.2499ZM6.60754 19.3576C5.85746 20.1077 5.80644 20.8467 5.70439 22.3249C5.68064 22.6688 5.6665 23.0219 5.6665 23.3749C5.6665 23.7279 5.68064 24.0809 5.70439 24.4249C5.80644 25.903 5.85746 26.6421 6.60754 27.3922C7.35761 28.1423 8.09668 28.1933 9.57481 28.2953C9.91878 28.3191 10.2718 28.3332 10.6248 28.3332C10.9779 28.3332 11.3309 28.3191 11.6749 28.2953C13.153 28.1933 13.8921 28.1423 14.6421 27.3922C15.3922 26.6421 15.4432 25.903 15.5453 24.4249C15.569 24.0809 15.5832 23.7279 15.5832 23.3749C15.5832 23.0219 15.569 22.6688 15.5453 22.3249C15.4432 20.8467 15.3922 20.1077 14.6421 19.3576C13.8921 18.6075 13.153 18.5565 11.6749 18.4544C11.3309 18.4307 10.9779 18.4166 10.6248 18.4166C10.2718 18.4166 9.91878 18.4307 9.57481 18.4544C8.09668 18.5565 7.35761 18.6075 6.60754 19.3576ZM22.52 21.281C22.8091 21.2611 23.0964 21.2499 23.3748 21.2499C23.6533 21.2499 23.9405 21.2611 24.2297 21.281C24.6142 21.3076 24.8803 21.3264 25.1057 21.3504C25.2216 21.3628 25.3052 21.3746 25.3651 21.3846C25.3752 21.4445 25.3869 21.5282 25.3993 21.644C25.4234 21.8694 25.4421 22.1356 25.4687 22.52C25.4886 22.8092 25.4998 23.0964 25.4998 23.3749C25.4998 23.6534 25.4886 23.9406 25.4687 24.2298C25.4421 24.6142 25.4234 24.8803 25.3993 25.1057C25.3869 25.2216 25.3752 25.3053 25.3651 25.3652C25.3052 25.3752 25.2216 25.387 25.1057 25.3993C24.8803 25.4234 24.6142 25.4422 24.2297 25.4687C23.9405 25.4887 23.6533 25.4999 23.3748 25.4999C23.0964 25.4999 22.8091 25.4887 22.52 25.4687C22.1355 25.4422 21.8694 25.4234 21.644 25.3993C21.5281 25.387 21.4445 25.3752 21.3846 25.3652C21.3745 25.3053 21.3628 25.2216 21.3504 25.1057C21.3263 24.8803 21.3075 24.6142 21.281 24.2298C21.261 23.9406 21.2498 23.6534 21.2498 23.3749C21.2498 23.0964 21.261 22.8092 21.281 22.52C21.3075 22.1356 21.3263 21.8694 21.3504 21.644C21.3628 21.5282 21.3745 21.4445 21.3846 21.3846C21.4445 21.3746 21.5281 21.3628 21.644 21.3504C21.8694 21.3264 22.1355 21.3076 22.52 21.281ZM18.4544 22.3249C18.5564 20.8467 18.6075 20.1077 19.3575 19.3576C20.1076 18.6075 20.8467 18.5565 22.3248 18.4544C22.6688 18.4307 23.0218 18.4166 23.3748 18.4166C23.7279 18.4166 24.0809 18.4307 24.4249 18.4544C25.903 18.5565 26.6421 18.6075 27.3921 19.3576C28.1422 20.1077 28.1932 20.8467 28.2953 22.3249C28.319 22.6688 28.3332 23.0219 28.3332 23.3749C28.3332 23.7279 28.319 24.0809 28.2953 24.4249C28.1932 25.903 28.1422 26.6421 27.3921 27.3922C26.6421 28.1423 25.903 28.1933 24.4249 28.2953C24.0809 28.3191 23.7279 28.3332 23.3748 28.3332C23.0218 28.3332 22.6688 28.3191 22.3248 28.2953C20.8467 28.1933 20.1076 28.1423 19.3575 27.3922C18.6075 26.6421 18.5564 25.903 18.4544 24.4249C18.4306 24.0809 18.4165 23.7279 18.4165 23.3749C18.4165 23.0219 18.4306 22.6688 18.4544 22.3249Z" fill="#1D2023"/>
</svg>
