<svg width="40" height="41" viewBox="0 0 40 41" fill="none" xmlns="http://www.w3.org/2000/svg">
<path d="M25.2193 26.5663V18.5663C25.2193 16.858 24.7485 15.4413 23.807 14.3163C22.8655 13.1496 21.5965 12.5663 20 12.5663C18.4035 12.5663 17.1345 13.1496 16.193 14.3163C15.2515 15.4413 14.7807 16.858 14.7807 18.5663V26.5663H25.2193ZM27.8596 25.1913L30.5 27.8788V29.1913H9.5V27.8788L12.1404 25.1913V18.5663C12.1404 16.483 12.652 14.6705 13.6754 13.1288C14.7398 11.5871 16.193 10.5871 18.0351 10.1288V9.19128C18.0351 8.64962 18.2193 8.19128 18.5877 7.81628C18.9561 7.39962 19.4269 7.19128 20 7.19128C20.5731 7.19128 21.0439 7.39962 21.4123 7.81628C21.7807 8.19128 21.9649 8.64962 21.9649 9.19128V10.1288C23.807 10.5871 25.2398 11.5871 26.2632 13.1288C27.3275 14.6705 27.8596 16.483 27.8596 18.5663V25.1913ZM21.8421 32.4413C21.3099 32.9413 20.6959 33.1913 20 33.1913C19.3041 33.1913 18.6901 32.9413 18.1579 32.4413C17.6257 31.8996 17.3596 31.2746 17.3596 30.5663H22.6404C22.6404 31.2746 22.3743 31.8996 21.8421 32.4413Z" fill="#666666"/>
</svg>
