<svg width="18" height="19" viewBox="0 0 18 19" fill="none" xmlns="http://www.w3.org/2000/svg">
<path fill-rule="evenodd" clip-rule="evenodd" d="M13.4788 0.507466C12.8251 0.559868 12.4177 0.912273 11.6029 1.61708C10.2959 2.74773 8.44909 4.38863 6.94648 5.89079C5.44386 7.39294 3.80245 9.23915 2.67146 10.5458C2.36674 10.8978 2.12788 11.1738 1.95063 11.4264C1.62569 11.8329 1.3956 12.5901 1.04235 13.7527L0.514634 15.4895C0.0352647 17.0671 -0.20442 17.856 0.219899 18.2802C0.644215 18.7044 1.43328 18.4647 3.01141 17.9855L4.74876 17.458C5.98041 17.084 6.75726 16.8481 7.14413 16.4914C7.37696 16.3205 7.633 16.099 7.95112 15.8238C9.25816 14.6932 11.1049 13.0523 12.6076 11.5501C14.1102 10.048 15.7516 8.20176 16.8826 6.89512C17.5876 6.08061 17.9401 5.67335 17.9925 5.0198C18.045 4.36626 17.8198 4.00177 17.3694 3.27279C17.1126 2.85721 16.8011 2.43356 16.4335 2.06604C16.0658 1.69852 15.6421 1.38712 15.2264 1.13044C14.4972 0.680188 14.1326 0.455063 13.4788 0.507466ZM3.52706 12.6618C3.52875 12.6586 3.53037 12.6553 3.53037 12.6553L3.55327 12.6267L3.58928 12.5753C3.69511 12.4245 3.85677 12.2342 4.18498 11.8551C5.30704 10.5587 6.91096 8.75596 8.36174 7.30562C8.92296 6.74458 9.53693 6.16063 10.1539 5.59052L12.9079 8.34366C12.3376 8.96047 11.7535 9.57425 11.1923 10.1353C9.7415 11.5856 7.93817 13.1891 6.64145 14.3108C6.30277 14.6038 6.11386 14.7653 5.95974 14.8784L5.86948 14.9447L5.83526 14.9762C5.80512 14.9918 5.7214 15.0337 5.55359 15.0973C5.23461 15.2182 4.80697 15.3491 4.16704 15.5435L2.42973 16.071L2.95744 14.3342C3.14021 13.7327 3.26737 13.3169 3.3848 12.9988C3.46465 12.7825 3.51381 12.6875 3.52706 12.6618ZM14.2529 6.85858C14.6566 6.40447 15.0343 5.97262 15.3691 5.58586C15.5507 5.37603 15.6844 5.22134 15.7954 5.08529C15.8863 4.974 15.9421 4.89913 15.9773 4.84739C15.9645 4.82261 15.9473 4.79098 15.9246 4.7511C15.8623 4.64167 15.7843 4.51494 15.6665 4.32424C15.4664 4.00036 15.2472 3.70983 15.0182 3.48087C14.7892 3.25192 14.4986 3.03283 14.1746 2.83278C13.9838 2.71499 13.8571 2.63703 13.7476 2.57474C13.7077 2.55205 13.6761 2.53491 13.6513 2.52203C13.5995 2.5573 13.5246 2.61309 13.4133 2.7039C13.2772 2.81493 13.1225 2.94857 12.9126 3.13014C12.5257 3.46481 12.0937 3.84236 11.6395 4.24593L14.2529 6.85858Z" fill="#1D2023"/>
</svg>
