<svg width="18" height="18" viewBox="0 0 18 18" fill="none" xmlns="http://www.w3.org/2000/svg">
<path fill-rule="evenodd" clip-rule="evenodd" d="M10.5864 14.0256C10.7437 13.9005 10.9109 13.76 11.0964 13.6042C11.6323 13.1539 12.2398 12.6043 12.9028 11.9413C13.5655 11.2786 14.1149 10.6713 14.5652 10.1355C15.3563 9.19397 15.7519 8.72322 15.7499 7.61806C15.748 6.5129 15.3673 6.06307 14.6059 5.16342C14.3516 4.86296 14.0691 4.55225 13.7584 4.24154C13.4477 3.93086 13.137 3.64838 12.8366 3.3941C11.9369 2.63267 11.487 2.25195 10.3819 2.25001C9.27668 2.24806 8.80591 2.64365 7.86437 3.43483C7.32854 3.88508 6.72131 4.43449 6.05862 5.09718C5.39569 5.76011 4.84614 6.36752 4.39583 6.90346C4.23997 7.08895 4.09946 7.25618 3.97433 7.41358L3.53033 6.96958C3.23744 6.67669 2.76256 6.67669 2.46967 6.96958C2.17678 7.26247 2.17678 7.73735 2.46967 8.03024L5.68934 11.2499L3.21967 13.7196C2.92678 14.0125 2.92678 14.4873 3.21967 14.7802C3.51256 15.0731 3.98744 15.0731 4.28033 14.7802L6.75 12.3106L9.96967 15.5302C10.2626 15.8231 10.7374 15.8231 11.0303 15.5302C11.3232 15.2373 11.3232 14.7625 11.0303 14.4696L10.5864 14.0256ZM7.11928 6.15784C6.48725 6.78988 5.96696 7.36533 5.54425 7.8684C5.31405 8.14237 5.15643 8.33315 5.04325 8.4825L9.51743 12.9567C9.66676 12.8435 9.85753 12.6859 10.1315 12.4557C10.6346 12.033 11.21 11.5127 11.8421 10.8807C12.4739 10.2488 12.9941 9.6735 13.4168 9.17049C13.8445 8.66146 14.0218 8.43944 14.129 8.23689C14.1962 8.10975 14.2505 7.96366 14.2499 7.6207C14.2493 7.26683 14.1942 7.12437 14.1346 7.01088C14.0365 6.82406 13.874 6.62055 13.4609 6.13244C13.231 5.86075 12.9765 5.58095 12.6977 5.3022C12.419 5.02348 12.1392 4.76901 11.8676 4.53909C11.3794 4.12596 11.1759 3.96345 10.9891 3.86536C10.8755 3.80577 10.7331 3.75063 10.3792 3.75C10.0363 3.7494 9.89018 3.80373 9.76302 3.87097C9.56045 3.97811 9.33841 4.15546 8.82935 4.58322C8.32637 5.00587 7.75109 5.52604 7.11928 6.15784Z" fill="#1D2023"/>
</svg>
