<svg width="24" height="25" viewBox="0 0 24 25" fill="none" xmlns="http://www.w3.org/2000/svg">
<g clip-path="url(#clip0_582_31891)">
<path d="M11.9999 6.99854C10.0662 6.99854 8.49866 8.56609 8.49866 10.4998C8.49866 12.4334 10.0662 14.001 11.9999 14.001C13.9336 14.001 15.5011 12.4334 15.5011 10.4998C15.5011 8.56609 13.9336 6.99854 11.9999 6.99854Z" fill="#1D2023"/>
<path fill-rule="evenodd" clip-rule="evenodd" d="M3.08105 10.4228C3.27575 7.80684 3.3731 6.49884 4.68597 5.18597C5.99884 3.8731 7.30684 3.77575 9.92282 3.58105C10.601 3.53058 11.3005 3.5 12 3.5C12.6995 3.5 13.399 3.53058 14.0772 3.58105C16.6932 3.77575 18.0012 3.8731 19.314 5.18597C20.6269 6.49884 20.7243 7.80684 20.9189 10.4228C20.9694 11.101 21 11.8005 21 12.5C21 13.1995 20.9694 13.899 20.9189 14.5772C20.7243 17.1932 20.6269 18.5012 19.314 19.814C18.0012 21.1269 16.6932 21.2243 14.0772 21.4189C13.399 21.4694 12.6995 21.5 12 21.5C11.3005 21.5 10.601 21.4694 9.92282 21.4189C7.30684 21.2243 5.99884 21.1269 4.68597 19.814C3.3731 18.5012 3.27575 17.1932 3.08105 14.5772C3.03058 13.899 3 13.1995 3 12.5C3 11.8005 3.03058 11.101 3.08105 10.4228ZM10.0713 5.57554C10.7084 5.52812 11.3578 5.5 12 5.5C12.6422 5.5 13.2916 5.52812 13.9287 5.57554C16.6791 5.78023 17.1936 5.89398 17.8998 6.60018C18.606 7.30638 18.7198 7.8209 18.9245 10.5713C18.9719 11.2084 19 11.8578 19 12.5C19 13.1422 18.9719 13.7916 18.9245 14.4287C18.8496 15.434 18.787 16.1406 18.7031 16.667C15.9171 15.9618 14.3961 15.6029 12.8495 15.5256C12.2851 15.4974 11.7197 15.4973 11.1553 15.5255C9.60855 15.6025 8.08609 15.9616 5.29693 16.6671C5.21303 16.1407 5.15036 15.4341 5.07554 14.4287C5.02812 13.7916 5 13.1422 5 12.5C5 11.8578 5.02812 11.2084 5.07554 10.5713C5.28023 7.8209 5.39398 7.30638 6.10018 6.60018C6.80638 5.89398 7.3209 5.78023 10.0713 5.57554Z" fill="#1D2023"/>
</g>
<defs>
<clipPath id="clip0_582_31891">
<rect width="24" height="24" fill="white" transform="translate(0 0.5)"/>
</clipPath>
</defs>
</svg>
