<svg width="24" height="24" viewBox="0 0 24 24" fill="none" xmlns="http://www.w3.org/2000/svg">
<path fill-rule="evenodd" clip-rule="evenodd" d="M7.5 6C7.33578 6 7.16702 6.00551 6.99646 6.01559C6.71324 6.03232 6.51663 6.04424 6.34982 6.06059C6.21591 6.07371 6.13898 6.08645 6.09567 6.09567C6.08645 6.13898 6.07371 6.21591 6.06059 6.34982C6.04424 6.51663 6.03232 6.71324 6.01559 6.99646C6.00551 7.16702 6 7.33578 6 7.5C6 7.66422 6.00551 7.83298 6.01559 8.00354C6.03232 8.28676 6.04424 8.48337 6.06059 8.65018C6.07371 8.78409 6.08645 8.86102 6.09567 8.90433C6.13898 8.91355 6.21591 8.92629 6.34982 8.93941C6.51663 8.95576 6.71324 8.96768 6.99646 8.98441C7.16702 8.99449 7.33578 9 7.5 9C7.66422 9 7.83298 8.99449 8.00354 8.98441C8.28676 8.96768 8.48337 8.95576 8.65018 8.93941C8.78409 8.92629 8.86102 8.91355 8.90433 8.90433C8.91355 8.86102 8.92629 8.78409 8.93941 8.65018C8.95576 8.48337 8.96768 8.28676 8.98441 8.00354C8.99449 7.83298 9 7.66422 9 7.5C9 7.33578 8.99449 7.16702 8.98441 6.99646C8.96768 6.71324 8.95576 6.51663 8.93941 6.34982C8.92629 6.21591 8.91355 6.13898 8.90433 6.09567C8.86102 6.08645 8.78409 6.07371 8.65018 6.06059C8.48337 6.04424 8.28676 6.03232 8.00354 6.01559C7.83298 6.00551 7.66422 6 7.5 6ZM4.67996 4.67996C4.11561 5.24432 4.08343 5.78905 4.01907 6.87852C4.00698 7.08318 4 7.29159 4 7.5C4 7.70841 4.00698 7.91682 4.01907 8.12148C4.08343 9.21095 4.11561 9.75568 4.67996 10.32C5.24432 10.8844 5.78905 10.9166 6.87852 10.9809C7.08318 10.993 7.29159 11 7.5 11C7.70841 11 7.91682 10.993 8.12148 10.9809C9.21095 10.9166 9.75568 10.8844 10.32 10.32C10.8844 9.75568 10.9166 9.21095 10.9809 8.12148C10.993 7.91682 11 7.70841 11 7.5C11 7.29159 10.993 7.08318 10.9809 6.87852C10.9166 5.78905 10.8844 5.24432 10.32 4.67996C9.75568 4.11561 9.21095 4.08343 8.12148 4.01907C7.91682 4.00698 7.70841 4 7.5 4C7.29159 4 7.08318 4.00698 6.87852 4.01907C5.78905 4.08343 5.24432 4.11561 4.67996 4.67996ZM15.9965 6.01559C16.167 6.00551 16.3358 6 16.5 6C16.6642 6 16.833 6.00551 17.0035 6.01559C17.2868 6.03232 17.4834 6.04424 17.6502 6.06059C17.7841 6.07371 17.861 6.08645 17.9043 6.09567C17.9135 6.13898 17.9263 6.21591 17.9394 6.34982C17.9558 6.51663 17.9677 6.71324 17.9844 6.99646C17.9945 7.16702 18 7.33578 18 7.5C18 7.66422 17.9945 7.83298 17.9844 8.00354C17.9677 8.28676 17.9558 8.48337 17.9394 8.65018C17.9263 8.78409 17.9135 8.86102 17.9043 8.90433C17.861 8.91355 17.7841 8.92629 17.6502 8.93941C17.4834 8.95576 17.2868 8.96768 17.0035 8.98441C16.833 8.99449 16.6642 9 16.5 9C16.3358 9 16.167 8.99449 15.9965 8.98441C15.7132 8.96768 15.5166 8.95576 15.3498 8.93941C15.2159 8.92629 15.139 8.91355 15.0957 8.90433C15.0865 8.86101 15.0737 8.78409 15.0606 8.65018C15.0442 8.48337 15.0323 8.28676 15.0156 8.00354C15.0055 7.83298 15 7.66422 15 7.5C15 7.33578 15.0055 7.16702 15.0156 6.99646C15.0323 6.71324 15.0442 6.51663 15.0606 6.34982C15.0737 6.21591 15.0865 6.13898 15.0957 6.09567C15.139 6.08645 15.2159 6.07371 15.3498 6.06059C15.5166 6.04424 15.7132 6.03232 15.9965 6.01559ZM13.0191 6.87852C13.0834 5.78905 13.1156 5.24432 13.68 4.67996C14.2443 4.11561 14.7891 4.08343 15.8785 4.01907C16.0832 4.00698 16.2916 4 16.5 4C16.7084 4 16.9168 4.00698 17.1215 4.01907C18.2109 4.08343 18.7557 4.11561 19.32 4.67996C19.8844 5.24432 19.9166 5.78905 19.9809 6.87852C19.993 7.08318 20 7.29159 20 7.5C20 7.70841 19.993 7.91682 19.9809 8.12148C19.9166 9.21095 19.8844 9.75568 19.32 10.32C18.7557 10.8844 18.2109 10.9166 17.1215 10.9809C16.9168 10.993 16.7084 11 16.5 11C16.2916 11 16.0832 10.993 15.8785 10.9809C14.7891 10.9166 14.2443 10.8844 13.68 10.32C13.1156 9.75568 13.0834 9.21095 13.0191 8.12148C13.007 7.91682 13 7.70841 13 7.5C13 7.29159 13.007 7.08318 13.0191 6.87852ZM7.5 15C7.33578 15 7.16702 15.0055 6.99646 15.0156C6.71324 15.0323 6.51663 15.0442 6.34982 15.0606C6.21591 15.0737 6.13898 15.0865 6.09567 15.0957C6.08645 15.139 6.07371 15.2159 6.06059 15.3498C6.04424 15.5166 6.03232 15.7132 6.01559 15.9965C6.00551 16.167 6 16.3358 6 16.5C6 16.6642 6.00551 16.833 6.01559 17.0035C6.03232 17.2868 6.04424 17.4834 6.06059 17.6502C6.07371 17.7841 6.08645 17.861 6.09567 17.9043C6.13898 17.9135 6.21591 17.9263 6.34982 17.9394C6.51663 17.9558 6.71324 17.9677 6.99646 17.9844C7.16702 17.9945 7.33578 18 7.5 18C7.66422 18 7.83298 17.9945 8.00354 17.9844C8.28676 17.9677 8.48337 17.9558 8.65018 17.9394C8.78409 17.9263 8.86102 17.9135 8.90433 17.9043C8.91355 17.861 8.92629 17.7841 8.93941 17.6502C8.95576 17.4834 8.96768 17.2868 8.98441 17.0035C8.99449 16.833 9 16.6642 9 16.5C9 16.3358 8.99449 16.167 8.98441 15.9965C8.96768 15.7132 8.95576 15.5166 8.93941 15.3498C8.92629 15.2159 8.91355 15.139 8.90433 15.0957C8.86102 15.0865 8.78409 15.0737 8.65018 15.0606C8.48337 15.0442 8.28676 15.0323 8.00354 15.0156C7.83298 15.0055 7.66422 15 7.5 15ZM4.67996 13.68C4.11561 14.2443 4.08343 14.7891 4.01907 15.8785C4.00698 16.0832 4 16.2916 4 16.5C4 16.7084 4.00698 16.9168 4.01907 17.1215C4.08343 18.2109 4.11561 18.7557 4.67996 19.32C5.24432 19.8844 5.78905 19.9166 6.87852 19.9809C7.08318 19.993 7.29159 20 7.5 20C7.70841 20 7.91682 19.993 8.12148 19.9809C9.21095 19.9166 9.75568 19.8844 10.32 19.32C10.8844 18.7557 10.9166 18.2109 10.9809 17.1215C10.993 16.9168 11 16.7084 11 16.5C11 16.2916 10.993 16.0832 10.9809 15.8785C10.9166 14.7891 10.8844 14.2443 10.32 13.68C9.75568 13.1156 9.21095 13.0834 8.12148 13.0191C7.91682 13.007 7.70841 13 7.5 13C7.29159 13 7.08318 13.007 6.87852 13.0191C5.78905 13.0834 5.24432 13.1156 4.67996 13.68ZM16.0034 17.8047C16.0267 17.1229 16.0384 16.7819 16.4102 16.4102C16.7819 16.0384 17.1229 16.0267 17.8047 16.0034C17.8696 16.0012 17.9348 16 18 16C18.0652 16 18.1304 16.0012 18.1953 16.0034C18.8771 16.0267 19.2181 16.0384 19.5898 16.4102C19.9616 16.7819 19.9733 17.1229 19.9966 17.8047C19.9988 17.8696 20 17.9348 20 18C20 18.0652 19.9988 18.1304 19.9966 18.1953C19.9733 18.8771 19.9616 19.2181 19.5898 19.5898C19.2181 19.9616 18.8771 19.9733 18.1953 19.9966C18.1304 19.9988 18.0652 20 18 20C17.9348 20 17.8696 19.9988 17.8047 19.9966C17.1229 19.9733 16.7819 19.9616 16.4102 19.5898C16.0384 19.2181 16.0267 18.8771 16.0034 18.1953C16.0012 18.1304 16 18.0652 16 18C16 17.9348 16.0012 17.8696 16.0034 17.8047ZM15 16C15 15.4477 15.4477 15 16 15H19C19.5523 15 20 14.5523 20 14C20 13.4477 19.5523 13 19 13H16C14.3431 13 13 14.3431 13 16V19C13 19.5523 13.4477 20 14 20C14.5523 20 15 19.5523 15 19V16Z" fill="#1D2023"/>
</svg>
