<svg width="24" height="24" viewBox="0 0 24 24" fill="none" xmlns="http://www.w3.org/2000/svg">
<path d="M7 8C7 7.44772 7.44772 7 8 7H12C12.5523 7 13 7.44772 13 8C13 8.55228 12.5523 9 12 9H8C7.44772 9 7 8.55228 7 8Z" fill="#666666"/>
<path fill-rule="evenodd" clip-rule="evenodd" d="M15 14.5C15 13.1193 13.8807 12 12.5 12H11.5C10.1193 12 9 13.1193 9 14.5V15.5C9 16.8807 10.1193 18 11.5 18H12.5C13.8807 18 15 16.8807 15 15.5V14.5ZM13 15.5V14.5C13 14.2239 12.7761 14 12.5 14H11.5C11.2239 14 11 14.2239 11 14.5V15.5C11 15.7761 11.2239 16 11.5 16H12.5C12.7761 16 13 15.7761 13 15.5Z" fill="#666666"/>
<path fill-rule="evenodd" clip-rule="evenodd" d="M3.08105 14.0786C3.27575 16.6946 3.3731 18.0026 4.68597 19.3155C5.99884 20.6284 7.30684 20.7257 9.92282 20.9204C10.601 20.9709 11.3005 21.0015 12 21.0015C12.6995 21.0015 13.399 20.9709 14.0772 20.9204C16.6932 20.7257 18.0012 20.6284 19.314 19.3155C20.6269 18.0026 20.7243 16.6946 20.9189 14.0786C20.9694 13.4005 21 12.701 21 12.0015C21 11.3019 20.9694 10.6024 20.9189 9.92424C20.8985 9.65013 20.8883 9.51308 20.8619 9.36374C20.7753 8.87472 20.5463 8.37522 20.2323 7.99042C20.1364 7.87291 20.0337 7.77014 19.8281 7.56461L16.4369 4.17332C16.2313 3.96779 16.1286 3.86503 16.011 3.76915C15.6262 3.45518 15.1267 3.2262 14.6377 3.13958C14.4884 3.11312 14.3513 3.10292 14.0772 3.08252C13.399 3.03205 12.6995 3.00146 12 3.00146C11.3005 3.00146 10.601 3.03205 9.92282 3.08252C7.30684 3.27721 5.99884 3.37456 4.68597 4.68743C3.3731 6.00031 3.27575 7.3083 3.08105 9.92429C3.03058 10.6024 3 11.3019 3 12.0015C3 12.701 3.03058 13.4005 3.08105 14.0786ZM13.9287 5.077C13.2916 5.02958 12.6422 5.00146 12 5.00146C11.3578 5.00146 10.7084 5.02958 10.0713 5.077C7.3209 5.2817 6.80638 5.39545 6.10018 6.10165C5.39398 6.80785 5.28023 7.32237 5.07554 10.0727C5.02812 10.7099 5 11.3593 5 12.0015C5 12.6437 5.02812 13.293 5.07554 13.9302C5.28023 16.6806 5.39398 17.1951 6.10018 17.9013C6.80638 18.6075 7.3209 18.7212 10.0713 18.9259C10.7084 18.9733 11.3578 19.0015 12 19.0015C12.6422 19.0015 13.2916 18.9733 13.9287 18.9259C16.6791 18.7212 17.1936 18.6075 17.8998 17.9013C18.606 17.1951 18.7198 16.6806 18.9245 13.9302C18.9719 13.293 19 12.6437 19 12.0015C19 11.3592 18.9719 10.7099 18.9245 10.0727C18.9018 9.76773 18.8977 9.74157 18.8925 9.71257C18.8654 9.55954 18.7809 9.37521 18.6827 9.2548C18.6647 9.2328 18.6441 9.20904 18.4139 8.97883L15.0226 5.58754C14.7924 5.35733 14.7687 5.33672 14.7467 5.31878C14.6263 5.22053 14.4419 5.13603 14.2889 5.10892C14.2599 5.10378 14.2337 5.0997 13.9287 5.077Z" fill="#666666"/>
</svg>
