<svg width="50" height="50" viewBox="0 0 50 50" fill="none" xmlns="http://www.w3.org/2000/svg">
<path d="M16.6667 14.5833C15.5161 14.5833 14.5833 15.5161 14.5833 16.6667C14.5833 17.8173 15.5161 18.75 16.6667 18.75H31.25C32.4006 18.75 33.3333 17.8173 33.3333 16.6667C33.3333 15.5161 32.4006 14.5833 31.25 14.5833H16.6667Z" fill="#005FAE"/>
<path d="M14.5833 25C14.5833 23.8494 15.5161 22.9167 16.6667 22.9167H33.3333C34.4839 22.9167 35.4167 23.8494 35.4167 25C35.4167 26.1506 34.4839 27.0833 33.3333 27.0833H16.6667C15.5161 27.0833 14.5833 26.1506 14.5833 25Z" fill="#005FAE"/>
<path d="M16.6667 31.25C15.5161 31.25 14.5833 32.1827 14.5833 33.3333C14.5833 34.4839 15.5161 35.4167 16.6667 35.4167H29.1667C30.3173 35.4167 31.25 34.4839 31.25 33.3333C31.25 32.1827 30.3173 31.25 29.1667 31.25H16.6667Z" fill="#005FAE"/>
<path fill-rule="evenodd" clip-rule="evenodd" d="M6.41886 20.6725C6.82447 15.2226 7.02728 12.4976 9.76243 9.76243C12.4976 7.02728 15.2226 6.82448 20.6725 6.41886C22.0853 6.31372 23.5427 6.25 25 6.25C26.4573 6.25 27.9147 6.31372 29.3275 6.41886C34.7774 6.82447 37.5024 7.02728 40.2376 9.76243C42.9727 12.4976 43.1755 15.2226 43.5811 20.6725C43.6863 22.0853 43.75 23.5427 43.75 25C43.75 26.4573 43.6863 27.9147 43.5811 29.3275C43.1755 34.7774 42.9727 37.5024 40.2376 40.2376C37.5024 42.9727 34.7774 43.1755 29.3275 43.5811C27.9147 43.6863 26.4573 43.75 25 43.75C23.5427 43.75 22.0853 43.6863 20.6725 43.5811C15.2226 43.1755 12.4976 42.9727 9.76243 40.2376C7.02728 37.5024 6.82448 34.7774 6.41886 29.3275C6.31372 27.9147 6.25 26.4573 6.25 25C6.25 23.5427 6.31372 22.0853 6.41886 20.6725ZM20.9818 10.574C22.3092 10.4752 23.6621 10.4167 25 10.4167C26.3379 10.4167 27.6908 10.4752 29.0182 10.574C34.7481 11.0005 35.82 11.2375 37.2913 12.7087C38.7625 14.18 38.9995 15.2519 39.426 20.9818C39.5248 22.3092 39.5833 23.6621 39.5833 25C39.5833 26.3379 39.5248 27.6908 39.426 29.0182C38.9995 34.7481 38.7625 35.82 37.2913 37.2913C35.82 38.7625 34.7481 38.9995 29.0182 39.426C27.6908 39.5248 26.3379 39.5833 25 39.5833C23.6621 39.5833 22.3092 39.5248 20.9818 39.426C15.2519 38.9995 14.18 38.7625 12.7087 37.2913C11.2375 35.82 11.0005 34.7481 10.574 29.0182C10.4752 27.6908 10.4167 26.3379 10.4167 25C10.4167 23.6621 10.4752 22.3092 10.574 20.9818C11.0005 15.2519 11.2375 14.18 12.7087 12.7087C14.18 11.2375 15.2519 11.0005 20.9818 10.574Z" fill="#005FAE"/>
</svg>
