<svg width="24" height="24" viewBox="0 0 24 24" fill="none" xmlns="http://www.w3.org/2000/svg">
<path d="M14.0156 6V3.98438H9.98438V6H14.0156ZM20.0156 6C20.5781 6 21.0469 6.20312 21.4219 6.60938C21.7969 6.98438 21.9844 7.45312 21.9844 8.01562V18.9844C21.9844 19.5469 21.7969 20.0312 21.4219 20.4375C21.0469 20.8125 20.5781 21 20.0156 21H3.98438C3.42188 21 2.95312 20.8125 2.57812 20.4375C2.20312 20.0312 2.01562 19.5469 2.01562 18.9844V8.01562C2.01562 7.45312 2.20312 6.98438 2.57812 6.60938C2.95312 6.20312 3.42188 6 3.98438 6H8.01562V3.98438C8.01562 3.42188 8.20312 2.95312 8.57812 2.57812C8.95312 2.20312 9.42188 2.01562 9.98438 2.01562H14.0156C14.5781 2.01562 15.0469 2.20312 15.4219 2.57812C15.7969 2.95312 15.9844 3.42188 15.9844 3.98438V6H20.0156Z" fill="black"/>
</svg>
