<svg width="16" height="9" viewBox="0 0 16 9" fill="none" xmlns="http://www.w3.org/2000/svg">
<path d="M1.01246 0.5C0.112259 0.5 -0.338563 1.57659 0.297975 2.20623C0.297975 2.20623 0.297975 2.20623 0.297975 2.20623L3.4273 5.30165C5.58289 7.43388 6.66069 8.5 8.00001 8.5C9.33932 8.5 10.4171 7.43388 12.5727 5.30164L15.702 2.20623C16.3386 1.57659 15.8877 0.5 14.9875 0.5C14.7196 0.5 14.4625 0.605304 14.2731 0.792744L11.1437 3.88815C10.0255 4.99423 9.32762 5.67859 8.75443 6.11118C8.23709 6.50162 8.05648 6.50117 8.00276 6.50103L8.00001 6.50103L7.99725 6.50103C7.94353 6.50117 7.76292 6.50162 7.24558 6.11118C6.67239 5.6786 5.97446 4.99423 4.85627 3.88816L1.72695 0.792743C1.72695 0.792743 1.72695 0.792743 1.72695 0.792743C1.53745 0.605303 1.28044 0.5 1.01246 0.5Z" fill="#005FAE"/>
</svg>
