<?xml version="1.0" encoding="UTF-8"?>
<svg id="_Слой_1" data-name="Слой 1" xmlns="http://www.w3.org/2000/svg" viewBox="0 0 396 396">
  <defs>
    <style>
      .cls-1 {
        fill: #fff;
      }

      .cls-2 {
        fill: #008ae0;
      }
    </style>
  </defs>
  <rect class="cls-2" x="0" width="396" height="396"/>
  <polygon class="cls-1" points="44.98 302.13 44.98 365.1 30.91 365.1 30.91 289.28 54.87 289.28 78.06 351.37 101.46 289.28 124.65 289.28 124.65 365.1 109.38 365.1 109.38 301.8 85.42 365.1 68.82 365.1 44.98 302.13"/>
  <polygon class="cls-1" points="196.96 289.28 196.96 301.8 152.45 301.8 152.45 365.1 137.06 365.1 137.06 289.28 196.96 289.28"/>
  <polygon class="cls-1" points="204.9 301.8 204.9 289.28 282.27 289.28 282.27 301.8 251.28 301.8 251.28 365.1 235.89 365.1 235.89 301.8 204.9 301.8"/>
  <path class="cls-1" d="m326.19,287.96c24.18,0,37.8,7.25,40,25.93h-15.49c-1.98-10.88-10-13.96-24.51-13.96-16.15,0-26.59,5.38-26.59,23.3v7.69c0,17.58,10.22,23.52,26.59,23.52,13.96,0,22.09-2.64,24.62-13.08h15.49c-2.75,17.91-16.15,25.05-40.11,25.05-26.81,0-42.09-10.22-42.09-39.12s15.28-39.34,42.09-39.34"/>
</svg>