<svg width="24" height="25" viewBox="0 0 24 25" fill="none" xmlns="http://www.w3.org/2000/svg">
<g clip-path="url(#clip0_582_31887)">
<path fill-rule="evenodd" clip-rule="evenodd" d="M14.9763 13.1604C14.9204 13.9448 14.8925 14.3371 14.3648 14.8648C13.837 15.3926 13.4448 15.4205 12.6603 15.4763C12.4508 15.4912 12.2298 15.5 12 15.5C11.7701 15.5 11.5491 15.4912 11.3396 15.4763C10.5552 15.4205 10.1629 15.3926 9.63517 14.8648C9.1074 14.3371 9.0795 13.9448 9.02368 13.1604C9.00877 12.9509 8.99997 12.7298 8.99997 12.5C8.99997 12.2702 9.00877 12.0492 9.02368 11.8397C9.0795 11.0552 9.10741 10.663 9.63517 10.1352C10.1629 9.60747 10.5552 9.57956 11.3396 9.52374C11.5491 9.50883 11.7701 9.50003 12 9.50003C12.2298 9.50003 12.4508 9.50883 12.6603 9.52374C13.4448 9.57956 13.837 9.60747 14.3648 10.1352C14.8925 10.663 14.9204 11.0552 14.9763 11.8397C14.9912 12.0492 15 12.2702 15 12.5C15 12.7298 14.9912 12.9509 14.9763 13.1604ZM12.5184 13.4814C12.3524 13.4932 12.1789 13.5 12 13.5C11.8211 13.5 11.6475 13.4932 11.4816 13.4814C11.2722 13.4665 11.1529 13.4575 11.0558 13.4458L11.0544 13.4456L11.0542 13.4442C11.0425 13.3471 11.0335 13.2278 11.0186 13.0184C11.0068 12.8525 11 12.6789 11 12.5C11 12.3211 11.0068 12.1476 11.0186 11.9816C11.0335 11.7723 11.0425 11.653 11.0542 11.5558L11.0544 11.5544L11.0558 11.5543C11.1529 11.5426 11.2722 11.5336 11.4816 11.5187C11.6475 11.5069 11.8211 11.5 12 11.5C12.1789 11.5 12.3524 11.5069 12.5184 11.5187C12.7277 11.5336 12.847 11.5426 12.9442 11.5543L12.9456 11.5544L12.9457 11.5558C12.9574 11.653 12.9664 11.7723 12.9813 11.9816C12.9931 12.1476 13 12.3211 13 12.5C13 12.6789 12.9931 12.8525 12.9813 13.0184C12.9664 13.2278 12.9574 13.3471 12.9457 13.4442L12.9456 13.4456L12.9442 13.4458C12.847 13.4575 12.7277 13.4665 12.5184 13.4814Z" fill="#1D2023"/>
<path fill-rule="evenodd" clip-rule="evenodd" d="M12.6988 21.5L11.3009 21.5C10.9581 21.5001 10.6124 21.5002 10.3198 21.4623C9.98068 21.4183 9.60754 21.313 9.27055 21.0288C8.9386 20.7488 8.77079 20.4071 8.66924 20.0812C8.58702 19.8173 8.53161 19.5033 8.47867 19.1937C8.30285 19.101 8.13117 19.0017 7.96395 18.896C7.66967 19.0048 7.37041 19.1136 7.10112 19.1742C6.7681 19.2492 6.38832 19.2747 5.97988 19.1272C5.56523 18.9775 5.28749 18.707 5.07988 18.4353C4.90073 18.2009 4.72799 17.9015 4.55665 17.6046L3.85724 16.3932C3.68577 16.0963 3.51289 15.7971 3.39943 15.5247C3.26792 15.2091 3.17255 14.8333 3.25022 14.3993C3.32672 13.9719 3.53868 13.6557 3.77013 13.4048C3.95761 13.2016 4.20199 12.9965 4.44377 12.7957C4.43999 12.6976 4.43809 12.5992 4.43809 12.5003C4.43809 12.4013 4.44 12.3028 4.44378 12.2046C4.20149 12.0035 3.95648 11.7979 3.7686 11.5943C3.53714 11.3433 3.32516 11.0272 3.24865 10.5997C3.17098 10.1657 3.26636 9.78996 3.39786 9.4743C3.51134 9.20193 3.68422 8.90265 3.85571 8.60579L4.55524 7.39417C4.72658 7.09722 4.89933 6.79785 5.07848 6.56338C5.2861 6.29166 5.56385 6.02117 5.97852 5.87145C6.38697 5.72398 6.76676 5.74948 7.09978 5.82447C7.3699 5.8853 7.67017 5.99461 7.96532 6.10377C8.13207 5.9984 8.30326 5.89935 8.47857 5.80695C8.53154 5.49713 8.58697 5.18289 8.66924 4.91886C8.77079 4.59295 8.9386 4.25127 9.27055 3.97127C9.60754 3.687 9.98068 3.5817 10.3198 3.53776C10.6125 3.49984 10.9581 3.49992 11.301 3.50001L12.6988 3.50001C13.0417 3.49992 13.3873 3.49984 13.68 3.53776C14.0191 3.5817 14.3922 3.687 14.7292 3.97126C15.0612 4.25127 15.229 4.59295 15.3305 4.91886C15.4128 5.18289 15.4682 5.49714 15.5212 5.80698C15.6966 5.8994 15.8678 5.99849 16.0346 6.1039C16.3291 5.99503 16.6285 5.88612 16.898 5.82545C17.231 5.75047 17.6107 5.72498 18.0192 5.87245C18.4338 6.02217 18.7116 6.29266 18.9192 6.56437C19.0983 6.79882 19.2711 7.09817 19.4424 7.3951L20.1418 8.60649C20.3133 8.90334 20.4862 9.20262 20.5996 9.47499C20.7311 9.79065 20.8265 10.1664 20.7489 10.6004C20.6724 11.0278 20.4604 11.344 20.2289 11.5949C20.0416 11.798 19.7975 12.0029 19.5559 12.2035C19.5597 12.302 19.5616 12.401 19.5616 12.5003C19.5616 12.5991 19.5597 12.6974 19.556 12.7953C19.7985 12.9967 20.0437 13.2024 20.2318 13.4062C20.4632 13.6571 20.6752 13.9733 20.7517 14.4008C20.8294 14.8347 20.734 15.2105 20.6025 15.5262C20.489 15.7985 20.3161 16.0978 20.1447 16.3947L19.4451 17.6063C19.2738 17.9033 19.101 18.2026 18.9219 18.4371C18.7143 18.7088 18.4365 18.9793 18.0218 19.129C17.6134 19.2765 17.2336 19.251 16.9006 19.176C16.6304 19.1152 16.33 19.0058 16.0348 18.8966C15.8679 19.0021 15.6966 19.1012 15.5211 19.1937C15.4682 19.5033 15.4127 19.8173 15.3305 20.0812C15.229 20.4071 15.0612 20.7488 14.7292 21.0288C14.3922 21.313 14.0191 21.4183 13.6799 21.4623C13.3873 21.5002 13.0417 21.5001 12.6988 21.5ZM13.5659 18.762C13.5 19.1474 13.4642 19.3447 13.4234 19.4788C13.2751 19.498 13.0619 19.5 12.6508 19.5H11.349C10.9379 19.5 10.7247 19.498 10.5764 19.4788C10.5356 19.3447 10.4998 19.1474 10.4339 18.762L10.4102 18.622C10.3254 18.1163 9.99532 17.7119 9.56941 17.5046C9.33091 17.3885 9.10182 17.2558 8.88365 17.1079C8.49085 16.8416 7.97484 16.7576 7.49393 16.9372L7.36124 16.9865C6.99456 17.1221 6.80558 17.1894 6.66907 17.2211C6.57828 17.1022 6.47022 16.919 6.26469 16.563L5.61334 15.4348C5.40781 15.0788 5.30297 14.8932 5.24546 14.7552C5.34112 14.6528 5.49409 14.5232 5.79486 14.2734L5.90469 14.1825C6.29972 13.8566 6.48514 13.3691 6.45196 12.8967C6.44277 12.7659 6.43809 12.6337 6.43809 12.5003C6.43809 12.3668 6.44278 12.2345 6.45197 12.1037C6.48518 11.6312 6.29974 11.1436 5.90464 10.8177L5.79335 10.7256C5.49255 10.4758 5.33972 10.3459 5.24405 10.2434C5.30156 10.1054 5.40626 9.92017 5.61179 9.56418L6.26328 8.43576C6.46882 8.07976 6.57713 7.89615 6.66792 7.77733C6.80444 7.80897 6.99349 7.87677 7.36019 8.01238L7.4951 8.06252C7.97592 8.24211 8.49186 8.15818 8.88466 7.89203C9.1025 7.74444 9.33122 7.61196 9.56933 7.49606C9.99523 7.28875 10.3253 6.88436 10.4101 6.37867L10.4339 6.238C10.4998 5.8526 10.536 5.65524 10.5768 5.52118C10.7251 5.50196 10.9379 5.50002 11.349 5.50002H12.6508C13.0619 5.50002 13.2751 5.50202 13.4234 5.52123C13.4642 5.65529 13.5 5.8526 13.5659 6.238L13.5897 6.37869C13.6745 6.88438 14.0045 7.28876 14.4304 7.49608C14.6686 7.612 14.8973 7.74451 15.1152 7.89214C15.508 8.15828 16.0239 8.24224 16.5047 8.06269L16.6378 8.01323C17.0045 7.87764 17.1935 7.81028 17.33 7.77865C17.4208 7.89746 17.5288 8.08074 17.7344 8.43672L18.3857 9.5649C18.5913 9.92089 18.6961 10.1065 18.7536 10.2445C18.658 10.3469 18.505 10.4765 18.2042 10.7263L18.0949 10.8167C17.6998 11.1427 17.5144 11.6303 17.5477 12.1028C17.5569 12.234 17.5616 12.3665 17.5616 12.5003C17.5616 12.6337 17.557 12.7658 17.5478 12.8965C17.5146 13.3689 17.7001 13.8564 18.0952 14.1823L18.207 14.2749C18.5078 14.5246 18.6606 14.6546 18.7563 14.757C18.6988 14.8951 18.5941 15.0803 18.3886 15.4363L17.7371 16.5647C17.5315 16.9207 17.4232 17.1043 17.3324 17.2231C17.1959 17.1915 17.0072 17.1238 16.6405 16.9882L16.505 16.9379C16.0241 16.7582 15.5082 16.8422 15.1153 17.1084C14.8974 17.2561 14.6686 17.3886 14.4303 17.5046C14.0044 17.7119 13.6744 18.1163 13.5896 18.622L13.5659 18.762Z" fill="#1D2023"/>
</g>
<defs>
<clipPath id="clip0_582_31887">
<rect width="24" height="24" fill="white" transform="translate(0 0.5)"/>
</clipPath>
</defs>
</svg>
