<svg width="25" height="24" viewBox="0 0 25 24" fill="none" xmlns="http://www.w3.org/2000/svg">
<path fill-rule="evenodd" clip-rule="evenodd" d="M19.4985 13.0005C19.4985 12.3583 19.4704 11.7089 19.423 11.0717C19.2183 8.32138 19.1046 7.80686 18.3984 7.10066C17.8448 6.54711 17.409 6.35757 15.9219 6.20291C15.4021 6.14885 15 5.71733 15 5.19475C15 4.61122 15.4975 4.14676 16.0781 4.20499C17.7475 4.37241 18.7785 4.65241 19.8126 5.68645C21.1254 6.99932 21.2228 8.30732 21.4175 10.9233C21.468 11.6014 21.4985 12.301 21.4985 13.0005C21.4985 13.7 21.468 14.3995 21.4175 15.0777C21.2228 17.6936 21.1254 19.0016 19.8126 20.3145C18.4997 21.6274 17.1917 21.7247 14.5757 21.9194C13.8976 21.9699 13.1981 22.0005 12.4985 22.0005C11.799 22.0005 11.0995 21.9699 10.4214 21.9194C7.80537 21.7247 6.49738 21.6274 5.1845 20.3145C3.87163 19.0016 3.77428 17.6936 3.57959 15.0777C3.52912 14.3995 3.49854 13.7 3.49854 13.0005C3.49854 12.301 3.52912 11.6014 3.57959 10.9233C3.77428 8.30732 3.87163 6.99932 5.1845 5.68645C6.21915 4.6518 7.25077 4.37208 8.92196 4.20469C9.50257 4.14654 10 4.61098 10 5.19449C10 5.71708 9.59784 6.14862 9.07805 6.20261C7.58861 6.35733 7.15263 6.54676 6.59872 7.10066C5.89252 7.80686 5.77877 8.32138 5.57407 11.0717C5.52665 11.7089 5.49854 12.3583 5.49854 13.0005C5.49854 13.6427 5.52665 14.2921 5.57407 14.9292C5.77877 17.6796 5.89252 18.1941 6.59872 18.9003C7.30492 19.6065 7.81944 19.7202 10.5698 19.9249C11.207 19.9724 11.8563 20.0005 12.4985 20.0005C13.1407 20.0005 13.7901 19.9724 14.4273 19.9249C17.1776 19.7202 17.6922 19.6065 18.3984 18.9003C19.1046 18.1941 19.2183 17.6796 19.423 14.9292C19.4704 14.2921 19.4985 13.6427 19.4985 13.0005ZM9.42049 9C8.6432 9 8.16308 9.84797 8.563 10.5145L8.72703 10.7879C10.4119 13.5961 11.2544 15 12.5 15C13.7456 15 14.5881 13.5961 16.273 10.7879L16.437 10.5145C16.8369 9.84797 16.3568 9 15.5795 9C15.2282 9 14.9027 9.1843 14.722 9.4855L14.558 9.75889C14.1385 10.458 13.7952 11.0279 13.5007 11.4934L13.5007 3C13.5007 2.44771 13.053 2 12.5007 2C11.9484 2 11.5007 2.44771 11.5007 3V11.4957C11.206 11.0298 10.8622 10.4592 10.442 9.75889L10.278 9.4855C10.0973 9.1843 9.77175 9 9.42049 9Z" fill="#1D2023"/>
</svg>
